<?xml version="1.0" encoding="UTF-8"?>
<svg id="Layer_1" data-name="Layer 1" xmlns="http://www.w3.org/2000/svg" viewBox="0 0 98.19 98.28">
  <defs>
    <style>
      .cls-1 {
        fill: #345355;
      }
    </style>
  </defs>
  <path class="cls-1" d="m81.09,26.19c-1.72.43-3.3,1.4-4.94,2.15.05.15.09.3.14.45,1.99.03,4.01-.51,5.98-.02,0,.11,0,.21.01.32-1.79.15-3.58.31-5.37.46,0,.1,0,.21,0,.31,2.54,1,5.2,1.16,7.91,1.07-2.35.81-4.71.52-7.11.19.89.8,1.75,1.61,2.76,2.17.81.45,1.81.85,2.7.81,2.61-.13,5.02-1.03,7.3-2.25-.25-.64-.51-1.27-.79-1.89-1.6-1.17-3.18-2.37-4.91-3.32-1.03-.56-2.56-.72-3.7-.44Z"/>
  <path class="cls-1" d="m56.28,84.26c-1.46-2.24-2.98-4.44-4.5-6.64-.89-1.29-1.84-2.54-2.76-3.81.62,1.82,1.49,3.49,2.28,5.2.8,1.73,1.51,3.5,2.21,5.14-7.44,1.35-13.72-2.17-20.34-4.24,5.39,3.07,11.63,4.87,14.86,10.92.13-.11.27-.21.4-.32-.72-1.59-1.44-3.18-2.22-4.89.48.03.9.01,1.3.1,2.81.64,5.63,1.29,8.43,1.96,1.07.26,1.56-.11,1.3-1.16-.2-.78-.52-1.57-.96-2.24Z"/>
  <path class="cls-1" d="m42.48,34.86c-2.71.54-5.35,1.45-8,2.25-.9.27-1.36,1.01-1.44,1.94-.03.33.08.66.12.99.3-.05.64-.04.91-.16,1.43-.65,2.81-1.39,4.26-1.99,2.27-.94,4.56-1.91,7.12-1.33.99.22,1.97.51,2.96.76.03-.09.06-.18.09-.27-1.86-1.13-3.68-2.66-6.02-2.19Z"/>
  <path class="cls-1" d="m32.67,60.2c-.36-.17-.72-.48-1.06-.47-.43.02-.85.3-1.27.47.17.41.22,1.03.53,1.2.6.34,1.35.63,2.01.58,1.81-.16,3.6-.46,5.39-.8.48-.09.9-.51,1.39-.81-1.94-.46-3.66-.89-5.38-1.27-.86-.19-1.69.4-1.6,1.11Z"/>
  <path class="cls-1" d="m46.76,42.91c-.37.05-.74.1-1.12.14-.07-.08-.13-.17-.2-.25.37-.19.73-.37,1.1-.56-.07-.11-.14-.22-.22-.33-2.77,1.44-5.6,2.53-8.79,1.53-.24.65-.45,1.2-.74,1.99.54-.24.82-.36,1.08-.48.14.26.24.46.36.68.22-.18.37-.31.53-.44.27.3.56.31.83.39.33.1.64.25.97.38.07-.11.18-.27.28-.42.41.23.77.42,1.22.67-.02-.4-.03-.63-.05-.93.47.16.87.29,1.34.44.06-.27.1-.49.15-.71.37.02.74.03,1.26.06-.28-.38-.47-.64-.58-.79.94-.35,1.82-.68,2.71-1.02-.04-.12-.09-.23-.13-.35Z"/>
  <path class="cls-1" d="m59.24,44.58c-.12-.01-.22-.15-.36-.25.19-.51.37-.99.55-1.47-.09-.05-.19-.1-.28-.16-.31.51-.71.99-.92,1.55-.23.6-.21,1.2.7,1.32.9.12.56.68.33,1.39-.3-.4-.43-.66-.64-.83-.17-.14-.42-.17-.64-.26.02.24.01.49.06.72.07.41.28.81.25,1.21-.08,1.25.33,1.56,1.53,1.19.2-.7.38-1.34.57-1.97.37-1.2.23-2.3-1.15-2.44Z"/>
  <path class="cls-1" d="m31.41,62.36c.21,1.47,1.03,1.84,1.97,2,1.74.3,3.43-.55,4.4-2.34-2.16,1.01-4.07,2.43-6.36.33Z"/>
  <path class="cls-1" d="m32.44,55.07c.59-.04,1.16-.07,1.79-.11-.76-.88-1.37-.83-1.79.11Z"/>
  <path class="cls-1" d="m92.6,38.68c-2.43-.21-4.88-.43-7.53-.66,1.18.94,2.25,1.6,3.06,2.5.77.86,1.27,1.98,1.88,2.99-.09.05-.18.11-.27.16-.82-1.17-1.65-2.34-2.47-3.51-.07.04-.14.09-.21.13.28.48.56.96,1.01,1.73-.52-.27-.74-.38-.96-.5-.05.04-.1.08-.15.11.97,1.2,1.95,2.4,2.92,3.6l-.31.3c-.73-.94-1.46-1.88-2.19-2.82-.15.13-.29.27-.44.4l1.94,2.52c-2.5-1.28-4.11-3.38-5.63-5.7.22,2.69.45,5.37.69,8.29-.92-.65-1.59-1.11-2.25-1.58-.07.07-.14.14-.21.21,2.07,3.5,5.32,6.43,5.59,11.02-2.15-1.04-2.91-2.89-3.69-4.81-2.16,1.2-3.31,3.09-4.43,5.02.17-1.7,1.07-3.01,2.24-4.11.63-.6.78-1.01.16-1.66-.33-.35-.55-.81-.87-1.3.07,2.01-2,3.15-1.76,5.23.21,1.78.04,3.6.04,5.62,1.16-1.78,2.17-3.34,3.19-4.9l.41.19c-.39,1.22-.78,2.44-1.16,3.66.08.04.16.08.24.11.6-1.18,1.19-2.35,1.94-3.84-.2,1.09-.35,1.88-.53,2.85,1.06-.14,1.99-.32,2.93-.38,1.06-.07,2.13-.03,3.2-.02.83,0,1.16.37.89,1.22-.54,1.69.26,3.05,1.07,4.59,1.81-4.94,2.83-10.37,2.86-16.21-.02-3.65-.43-7.14-1.18-10.46Z"/>
  <path class="cls-1" d="m89.84,60.76c.27-.86-.05-1.22-.89-1.22-1.07,0-2.14-.04-3.2.02-.94.06-1.87.24-2.93.38.18-.97.33-1.76.53-2.85-.75,1.48-1.35,2.66-1.94,3.84-.08-.04-.16-.08-.24-.11.39-1.22.78-2.44,1.16-3.66l-.41-.19c-1.02,1.56-2.03,3.12-3.19,4.9,0-2.02.17-3.84-.04-5.62-.25-2.09,1.83-3.23,1.76-5.23.33.5.54.95.87,1.3.62.66.47,1.07-.16,1.66-1.17,1.1-2.06,2.41-2.24,4.11,1.12-1.94,2.28-3.82,4.43-5.02.78,1.92,1.54,3.77,3.69,4.81-.27-4.6-3.52-7.53-5.59-11.02.07-.07.14-.14.21-.21.67.47,1.33.93,2.25,1.58-.24-2.92-.47-5.61-.69-8.29,1.53,2.32,3.13,4.43,5.63,5.7l-1.94-2.52c.15-.13.29-.27.44-.4.73.94,1.46,1.88,2.19,2.82l.31-.3c-.97-1.2-1.95-2.4-2.92-3.6.05-.04.1-.08.15-.11.22.12.45.23.96.5-.45-.77-.73-1.25-1.01-1.73.07-.04.14-.09.21-.13.82,1.17,1.65,2.34,2.47,3.51.09-.05.18-.11.27-.16-.62-1.01-1.11-2.12-1.88-2.99-.81-.9-1.88-1.56-3.06-2.5,2.64.23,5.09.45,7.53.66-.07-.31-.14-.61-.21-.91-1.45-.78-2.89-1.55-4.35-2.34.08-.06.16-.14.25-.18,1-.41,2-.83,3.01-1.22-.25-.75-.52-1.48-.81-2.21-2.29,1.22-4.69,2.12-7.3,2.25-.89.04-1.89-.36-2.7-.81-1.01-.55-1.87-1.36-2.76-2.17,2.4.33,4.76.62,7.11-.19-2.71.09-5.38-.07-7.91-1.07,0-.1,0-.21,0-.31,1.79-.15,3.58-.31,5.37-.46,0-.11,0-.21-.01-.32-1.97-.5-3.99.04-5.98.02-.05-.15-.09-.3-.14-.45,1.64-.74,3.22-1.72,4.94-2.15,1.15-.28,2.67-.13,3.7.44,1.73.94,3.31,2.14,4.91,3.32-.24-.54-.49-1.07-.76-1.6-.93-.75-1.86-1.5-2.77-2.27-.38-.32-.81-.89-.79-1.33.04-.83.01-1.64-.06-2.44-.62-.87-1.26-1.72-1.94-2.54.01.96-.17,1.95-.61,2.96-.76,1.72-2.16,2.66-4.17,3.3.83-1.25,1.5-2.27,2.09-3.16-1.73,1.69-3.54,3.48-5.36,5.26-.13-.11-.26-.22-.39-.33,1.45-3.87,3.45-7.42,6.17-10.59-.01-.01-.03-.03-.04-.04-1.55,1.13-2.87,2.46-3.81,4.1-.99,1.71-1.85,3.5-2.97,5.24.06-1.01.07-2.02.18-3.02.3-3.01,1.17-5.73,4-7.39.31-.19.61-.4.91-.62-.28-.26-.56-.52-.84-.77-.1.2-.24.38-.39.52-.54.49-1.16.91-1.74,1.36-.07-.06-.15-.13-.22-.19.27-.69.47-1.42.84-2.05.11-.19.34-.35.58-.46-1.67-1.42-3.43-2.72-5.27-3.89-.8-.19-1.62-.39-2.55-.62,1.08,2.23,2.65,3.51,4.86,4.07.43.11,1.18.48,1.15.65-.17,1.3-.5,2.58-.81,3.98-1-.94-1.74-1.78-2.61-2.43-1.76-1.31-3.84-1.84-5.96-2.25-1.88-.37-1.88-.37-2.74,1.34-1.37-1.77-3.17-2.82-5.27-3.3-1.28-.3-2.61-.38-3.9-.62-.39-.07-.9-.25-1.07-.55-1.54-2.55-4.02-3.2-6.7-3.32-6.83-.3-13.16,1.4-18.99,4.93-2.39,1.45-4.54,3.19-6.42,5.29-3,3.37-3.73,7.43-3.88,11.73-.1,2.89-.21,5.78-.47,8.65-.27,2.86-1.13,5.52-3.44,7.49-1.71,1.47-3.65,1.9-5.79,1.29-.42-.12-1.06-.56-1.08-.88-.07-1.3-.01-2.63.18-3.92.06-.41.62-.85,1.06-1.07,1.95-1,3.38-2.45,4.23-4.47.07-.17.04-.39.07-.77-2.44.75-4.09,2.27-5.57,4.15.24-1.49.48-2.97.72-4.46-.11-.02-.23-.04-.34-.06-.28,1.21-.56,2.43-.89,3.89-.8-3.15.95-5.29,2.19-7.59-1.76,1.51-2.71,3.42-3.01,5.87-.75-1.3-1.39-2.41-2.03-3.52-.09.25-.16.5-.24.75.58,1.73,1.16,3.45,1.74,5.16-.08-.02-.26-.05-.48-.1.55.85,1.27,1.59,1.52,2.46.26.9.06,1.93.06,2.91-.08,0-.16.02-.24.02-.21-.47-.41-.94-.65-1.47-.44,1.5-.27,3.68.56,5.58,2.19,4.99,6.43,7.16,11.74,8.01-2.47,2.8-5.22,4.55-8.78,4.49-3.37-.06-5.61-1.35-7.06-3.49.3,1.62.68,3.23,1.15,4.82,1.93,1.68,4.34,2.58,7.11,2.83.54.05,1.07.16,1.62.25-.06.3-.06.42-.11.51-.17.31-.35.62-.55.92-1.65,2.44-2.46,4.97-2.47,7.58.91,1.39,1.9,2.74,2.98,4.04.68-1.9,1.67-3.63,3.18-5.05,1.35-1.27,2.8-2.43,4.24-3.59,2.5-2.02,4.74-4.26,5.77-7.41.39-1.2.59-2.46.87-3.64.26,4.63-1.38,8.45-5.09,11.38-1.51,1.19-3,2.43-4.34,3.8-1.7,1.74-2.9,3.65-3.63,5.66.8.9,1.63,1.79,2.51,2.63.76.73,1.53,1.41,2.31,2.08,2.13-5.99,8.34-9.44,14.72-6.32.73.36,1.54.57,2.34.73,4.15.82,7.7-1.41,8.68-5.51.27-1.13.37-2.33.41-3.5.03-.78.3-1.23.99-1.58,1.49-.76,2.97-1.56,4.4-2.44,3.15-1.93,6.05-4.12,7.07-7.94.33-1.24.57-2.5.87-3.75.11-.46.29-.9.43-1.34.15,0,.3-.01.45-.02.14.51.38,1.03.39,1.55.03,2.1-.11,4.2,0,6.29.08,1.44.49,2.81,2.01,3.54.27.13.44.69.47,1.07.46,4.72.79,9.46,1.36,14.16.49,4.05,1.28,8.05,3.76,11.47.03.04,0,.13-.04.45-3.05,1.44-6.08,2.53-9.09,3.28,11.88-2.44,22.72-9.4,29.67-19.67-1.15.21-2.3.22-3.47-.37-.87-.43-1.59-1.04-1.45-2.36,1.1.84,2.07,1.59,3.04,2.34.04-.06.09-.12.13-.18-1.23-1.33-2.46-2.65-3.69-3.98.06-.07.13-.14.19-.21,1.5.75,3.01,1.5,4.51,2.25.08-.14.15-.28.23-.42-1.57-.98-3.15-1.96-4.82-3,.82.04,1.59.07,2.35.11.01-.12.03-.24.04-.36-.92-.18-1.83-.36-2.84-.56,2.62-1.24,5.43-.54,6.85,1.77.35.57.64,1.19.9,1.82,1.18-2.09,2.21-4.3,3.06-6.62-.81-1.54-1.62-2.9-1.07-4.59Zm-15.58-48.76c-.65-.34-1.31-.69-1.96-1.03.06-.11.12-.22.17-.32.66.35,1.31.7,1.97,1.04-.06.1-.12.21-.18.31ZM11.16,37.19c-.82.83-1.63,1.65-2.45,2.48-.06-.07-.13-.15-.19-.22.82-.81,1.64-1.62,2.47-2.43.06.06.12.12.18.17Zm-1.02-.62c.07.06.13.13.2.19-.84.81-1.67,1.62-2.51,2.44-.09-.09-.19-.19-.28-.28.86-.78,1.73-1.57,2.59-2.35Zm5.76,15.03c-2.15.95-4.5.4-6.4-1.47,5.5,1.46,7.64.58,10.68-4.17-.44,2.61-1.82,4.56-4.28,5.64Zm65.14,7.31c.07.03.15.07.22.1-.39.89-.79,1.77-1.18,2.66-.09-.05-.18-.1-.27-.14.41-.87.83-1.74,1.24-2.61Zm-3.24-3.95c-.07-.06-.14-.12-.21-.17.56-.74,1.12-1.47,1.68-2.21.1.09.2.17.29.26l-1.76,2.12Zm-.21,10.62c-.12.08-.25.15-.37.23-.74-1.01-1.47-2.02-2.21-3.03l-.27.17c.59,1.17,1.17,2.34,1.78,3.55-1.95.41-4.53-.82-5.43-2.45-1.06-1.91-.94-3.99-.88-6.05.02-.69.52-.55.94-.45,3.7.86,5.9,2.18,6.6,6.52-.84-1.25-1.72-2.55-2.6-3.86-.08.05-.16.1-.24.15.9,1.74,1.8,3.49,2.7,5.23Zm.1-11.77c-.1-.08-.19-.17-.29-.25.76-.91,1.51-1.83,2.27-2.74l.29.24c-.76.92-1.52,1.84-2.27,2.76Zm5-12.18c.09,1.14.19,2.28.28,3.42l-.25.03-.38-3.41c.12-.01.24-.03.36-.04Zm-6.74-5.26c-.54-1.37-.76-2.87-1.12-4.31.08-.03.17-.06.25-.1l2.39,4.21c.14-.07.29-.15.43-.22-.81-1.77-1.63-3.54-2.45-5.33,4.63,1.47,7.64,8.39,6.06,13.84-4.39-.33-6.67-2.55-6.77-8.8.86,1.96,1.59,3.7,3.39,4.82-.78-1.45-1.63-2.71-2.18-4.1Zm.25,16.86c.08.41.1.83.08,1.28-.73-2.33-1.64-4.51-3.9-5.8,1.69,1.77,2.68,3.87,3.04,6.29-1.7-2.33-3.03-4.93-5.34-6.78.89,1.36,1.79,2.71,2.65,4.08.22.35.83.67.21,1.26-.07.06.56.86.9,1.35-2.95-.88-5.34-4.01-5.35-6.92,0-.58.1-1.04.83-.88,3.16.7,6.19,2.73,6.88,6.12Zm-11.54-38.15c.07-.27.6-.65.86-.61,2.29.32,4.42,1.12,6.25,2.57,2.09,1.65,2.37,3.82,1.72,6.23-1.01-1.36-2.02-2.71-3.02-4.06-.12.07-.23.13-.35.2,1.44,2.51,3.61,4.75,2.92,8.11-1.3-1.7-2.61-3.4-3.91-5.1l-.17.07c.3.65.57,1.32.92,1.94.39.68.85,1.31,1.14,2.11-1.48-1.38-2.97-2.76-4.45-4.13-.07.05-.13.11-.2.16.84,1.01,1.68,2.02,2.43,2.93-1.6-.24-3.63-2.19-4.24-4.3-.6-2.04-.45-4.1.1-6.12Zm-1.2,10.8c3.47-.54,5.46.17,9,3.17-1.28-.1-2.29-.17-3.28-.27-.99-.1-1.97-.23-2.98-.21,1.65.9,3.53.83,5.37,1.42-.71.21-1.4.49-2.12.61-.76.13-1.55.1-2.33.24,1.28.84,2.65.31,4.04.16-2.37,4.3-10.77,3.27-14.36-1.8,1.93-1.69,4.1-2.92,6.66-3.32Zm-11.11-6.03c1.08-1.63,2.7-2.22,4.61-2.14,1.75.07,3.26.61,4.35,2.41-1.35-.14-2.5-.26-3.66-.38,0,.06-.01.12-.02.18.82.55,1.65,1.09,2.63,1.74-.79.05-1.4.09-2.01.13v.42c1.12.07,2.25.14,3.62.22-.65.22-1.12.47-1.61.53-2.82.33-5.38-.36-7.62-2.11-.23-.18-.42-.81-.29-1.01Zm-3.58-4.22c-2.41,4.1-7.96,4.4-13.49,2.79q7.49.3,13.49-2.79Zm-27.21,24c1.23.3,2.11.51,3,.73.69.17,1.37.46,2.07.53,1.82.18,2.37,1.48,2.78,2.94.06.21.05.52-.07.69-.63.93-3.07,1.78-4.17,1.45-.31-.1-.68-.31-.83-.57-.78-1.32-1.51-2.66-2.21-4.02-.22-.43-.3-.93-.56-1.76Zm39.22,12.33c-.47-.35-.84-.63-1.21-.9.92,4.11.38,8.16.54,12.19-.13.06-.25.11-.38.17-.28-.38-.72-.73-.81-1.16-.54-2.57-.66-5.16-.17-7.75.07-.37.43-.69.78-1.21-1.47-.32-2.16-1.45-2.45-2.92-.12.02-.24.04-.36.06-.31.96-.66,1.91-.91,2.89-.31,1.25-.51,2.52-.79,3.77-.68,2.97-2.29,5.34-4.9,6.88-3.25,1.93-6.54,3.81-9.93,5.46-3.29,1.6-6.19.59-8.09-2.51-2.04-3.35-4.13-6.68-6.04-10.1-1.33-2.37-1.96-4.97-1.75-7.73.07-.95.69-1.41,1.65-1.33.33.03.69-.25,1.14-.44.06.05.23.2.36.32.75-.69,1.45-1.34,2.41-2.24-.12,1.6-.18,2.99-.34,4.37-.1.85-.35,1.68-.55,2.51-.59,2.46.08,3.59,2.77,4.23-.28-.3-.52-.65-.84-.88-1.79-1.32-1.84-1.44-1.16-3.56.81-2.52,1.27-5.15.51-7.69-.53-1.76-1.46-3.54-2.65-4.93-1.36-1.61-3.5-1.74-5.55-1.58-.13.01-.26.04-.58.08.06-1.17-.01-2.29.21-3.35.46-2.17,2.53-3.3,5.23-2.93.62.08,1.03.08,1.2-.63.94-3.78,3.78-5.55,7.18-6.66,1.21-.4,2.49-.64,3.76-.83,2.28-.34,4.07.63,5.36,2.43,2.02,2.82,4.45,5.19,7.23,7.24,1.47,1.08,2.18,2.62,2.21,4.44.02,1.36-.02,2.71,0,4.07,0,.46.04.94.18,1.37.34,1.09,1.11,1.38,2.06.76.5-.33.9-.8,1.37-1.18.52-.43,1.02-.91,1.62-1.21,1.51-.77,2.88-.23,3.46,1.33,1.28,3.41.05,6.32-1.78,9.15Zm4.3-7.15c-.26.05-.83-.24-.84-.42-.18-1.77-.42-3.55-.34-5.31.09-2.16,1.75-3.34,3.36-4.43,1.26-.85,2.59-1.59,3.89-2.38.08.07.15.14.23.22-1.59,1.59-3.17,3.17-4.78,4.78,2.53-1.32,4.44-3.33,6.2-5.54-.55,2.34-1.47,4.44-3.44,5.95,2.41-.77,3.24-2.85,4.09-5,1.34,2.9-.07,7.92-2.66,9.83-1.71,1.26-3.64,1.94-5.7,2.3Zm1.06,26.92c1.49-3,5.28-6.23,9.64-4.04-2.47.2-4.84.43-6.61,1.93,2.26-.5,4.66-1.03,7.06-1.56.03.1.05.21.08.31-.73.24-1.47.48-2.2.74-.7.25-1.39.54-2.09.81l.13.39c1.28-.33,2.56-.65,4.15-1.06-.61.56-.97.89-1.34,1.22l.19.23c.51-.33,1.02-.66,1.56-1.02-3.1,4.52-5.44,4.89-10.57,2.03Zm12.13,7.08c-1.15,1.04-2.48,1.87-3.73,2.81-2.34-3.55-1.69-7.07,1.78-9.59-.41,1.25-.78,2.33-1.14,3.42.09.03.18.06.26.1.84-1.69,1.68-3.39,2.52-5.08.12.04.24.08.36.11-.06,1.05-.12,2.1-.19,3.14.09.03.18.05.27.08.29-.96.59-1.91.9-2.92,1.6,2.78,1.23,5.89-1.03,7.93Zm10.79-17.63c-.34,3.07-2.65,5.28-6.01,5.7-.81.1-1.62.2-2.74.33,2.41-1.32,4.98-1.89,6.75-4.13-2.28,1.05-4.36,2-6.44,2.96-.05-.08-.1-.17-.15-.25,1.07-.85,2.15-1.7,3.22-2.55-1.99.39-3.18,1.89-4.52,3.31.03-2.81,2.13-5.37,4.93-5.93,1.38-.28,2.83-.23,4.25-.31.61-.04.77.25.71.87Z"/>
  <path class="cls-1" d="m80.6,11.47c-.16-.13-.32-.27-.48-.4-.11-.09-.22-.19-.33-.28-.09-.08-.19-.15-.29-.23-.2-.16-.41-.32-.61-.48-.15-.12-.31-.24-.46-.36-.46-.34-.92-.68-1.39-1.01-1.14-.8-2.32-1.55-3.53-2.24-1.17-.67-2.37-1.29-3.59-1.85-.94-.43-1.88-.84-2.85-1.21-4.75-1.88-9.57-2.94-14.33-3.29C25.39-1.88-.13,19.86,0,49.14c-.01,2.32.15,4.6.45,6.82.26,1.94.64,3.84,1.12,5.69,1.41,5.38,3.71,10.36,6.72,14.8.79,1.17,1.64,2.31,2.52,3.4.33.41.67.81,1.01,1.2,1.49,1.72,3.1,3.33,4.81,4.83,13.18,11.56,32.32,16.14,50.44,8.98,18.46-7.02,31.32-25.96,31.12-45.72.14-14.44-6.69-28.44-17.58-37.67Zm7.26,60.5c-.61,1.08-1.26,2.14-1.95,3.16-6.94,10.27-17.79,17.23-29.67,19.67-13.11,2.69-27.48-.14-39.25-10.13-.78-.66-1.55-1.35-2.31-2.08-.88-.85-1.71-1.73-2.51-2.63-.34-.39-.68-.77-1.01-1.17-1.08-1.3-2.07-2.65-2.98-4.04-2.47-3.77-4.34-7.85-5.6-12.09-.47-1.59-.85-3.2-1.15-4.82-1.45-7.83-.92-15.98,1.59-23.57.08-.25.16-.5.24-.75,2.3-6.59,6.1-12.73,11.42-17.82C30.39.62,51.5-.67,67.96,7.53c.99.49,1.97,1.02,2.93,1.59.48.28.97.58,1.44.88,1.84,1.17,3.61,2.47,5.27,3.89.31.27.62.54.93.82.28.25.56.51.84.77.58.55,1.15,1.11,1.7,1.69.01.01.03.03.04.04.78.82,1.54,1.67,2.26,2.55.67.82,1.32,1.67,1.94,2.54,1.35,1.9,2.56,3.91,3.62,6.04.26.53.51,1.06.76,1.6.28.62.54,1.25.79,1.89.29.72.55,1.46.81,2.21.41,1.22.77,2.46,1.09,3.73.07.3.14.61.21.91.74,3.31,1.16,6.8,1.18,10.46-.03,5.84-1.05,11.27-2.86,16.21-.85,2.32-1.88,4.53-3.06,6.62Z"/>
</svg>