<?xml version="1.0" encoding="UTF-8"?>
<svg id="Layer_1" data-name="Layer 1" xmlns="http://www.w3.org/2000/svg" viewBox="0 0 222.82 74.09">
  <defs>
    <style>
      .cls-1 {
        font-family: Poppins-LightItalic, Poppins;
        font-size: 7.23px;
        font-style: italic;
        font-weight: 300;
      }

      .cls-1, .cls-2 {
        fill: #345355;
      }
    </style>
  </defs>
  <g>
    <path class="cls-2" d="m61.12,19.74c-1.29.32-2.49,1.06-3.72,1.62.04.11.07.23.11.34,1.5.02,3.02-.39,4.51-.01,0,.08,0,.16,0,.24-1.35.12-2.7.23-4.05.35,0,.08,0,.15,0,.23,1.91.76,3.92.88,5.97.81-1.77.61-3.55.39-5.36.14.67.6,1.32,1.22,2.08,1.63.61.34,1.36.64,2.04.61,1.97-.1,3.78-.78,5.5-1.7-.19-.48-.39-.96-.6-1.43-1.21-.88-2.4-1.79-3.7-2.5-.77-.42-1.93-.54-2.79-.33Z"/>
    <path class="cls-2" d="m42.42,63.52c-1.1-1.69-2.24-3.35-3.39-5-.67-.97-1.38-1.92-2.08-2.88.47,1.37,1.12,2.63,1.71,3.92.6,1.3,1.14,2.64,1.67,3.87-5.61,1.02-10.34-1.64-15.33-3.19,4.06,2.32,8.77,3.67,11.2,8.23.1-.08.2-.16.3-.24-.54-1.2-1.09-2.4-1.67-3.69.36.03.68,0,.98.08,2.12.48,4.24.97,6.36,1.48.8.19,1.18-.08.98-.88-.15-.59-.39-1.18-.72-1.69Z"/>
    <path class="cls-2" d="m32.02,26.28c-2.04.41-4.03,1.09-6.03,1.7-.68.21-1.03.76-1.09,1.46-.02.25.06.5.09.75.23-.04.48-.03.68-.12,1.08-.49,2.12-1.05,3.21-1.5,1.71-.71,3.44-1.44,5.37-1.01.75.17,1.49.38,2.23.58.02-.07.04-.14.07-.21-1.4-.85-2.77-2.01-4.54-1.65Z"/>
    <path class="cls-2" d="m24.62,45.38c-.27-.13-.54-.37-.8-.36-.32.01-.64.23-.96.35.13.31.17.77.4.9.45.25,1.02.48,1.52.43,1.36-.12,2.72-.35,4.06-.6.36-.07.67-.38,1.05-.61-1.46-.35-2.76-.67-4.06-.96-.65-.14-1.28.3-1.21.84Z"/>
    <path class="cls-2" d="m35.25,32.34c-.28.04-.56.07-.84.11-.05-.06-.1-.13-.15-.19.28-.14.55-.28.83-.42-.05-.08-.11-.17-.16-.25-2.09,1.09-4.22,1.91-6.63,1.15-.18.49-.34.91-.56,1.5.41-.18.61-.27.82-.36.1.2.18.35.27.51.17-.14.28-.24.4-.33.21.23.42.24.63.3.25.07.48.19.73.29.06-.09.13-.2.21-.32.31.17.58.32.92.51-.02-.3-.02-.47-.03-.7.36.12.65.21,1.01.33.04-.21.08-.37.11-.54.28.01.56.03.95.04-.21-.29-.35-.48-.44-.59.71-.26,1.37-.51,2.04-.77-.03-.09-.07-.18-.1-.26Z"/>
    <path class="cls-2" d="m44.66,33.6c-.09,0-.17-.11-.27-.19.14-.39.28-.75.42-1.11-.07-.04-.14-.08-.21-.12-.24.39-.54.75-.69,1.17-.17.46-.16.91.52,1,.68.09.42.51.25,1.05-.22-.3-.33-.5-.48-.63-.12-.11-.32-.13-.48-.19.01.18,0,.37.04.54.06.31.21.61.19.91-.06.94.25,1.17,1.15.89.15-.53.28-1.01.43-1.48.28-.9.18-1.73-.87-1.84Z"/>
    <path class="cls-2" d="m23.67,47.01c.16,1.11.78,1.39,1.48,1.51,1.31.23,2.58-.41,3.31-1.76-1.63.76-3.07,1.83-4.8.25Z"/>
    <path class="cls-2" d="m24.46,41.51c.45-.03.87-.06,1.35-.09-.58-.66-1.03-.62-1.35.09Z"/>
    <path class="cls-2" d="m69.8,29.16c-1.83-.16-3.68-.32-5.67-.5.89.71,1.7,1.2,2.31,1.88.58.65.95,1.49,1.42,2.25-.07.04-.14.08-.2.12-.62-.88-1.24-1.76-1.86-2.64-.05.03-.11.06-.16.1.21.36.43.73.76,1.31-.39-.2-.56-.29-.73-.38-.04.03-.08.06-.12.09.73.91,1.47,1.81,2.2,2.72l-.24.22c-.55-.71-1.1-1.42-1.65-2.13-.11.1-.22.2-.33.3l1.46,1.9c-1.89-.96-3.1-2.55-4.25-4.3.17,2.02.34,4.05.52,6.25-.69-.49-1.2-.84-1.7-1.19-.05.05-.11.1-.16.16,1.56,2.64,4.01,4.84,4.21,8.31-1.62-.78-2.19-2.18-2.78-3.62-1.63.91-2.5,2.33-3.34,3.79.13-1.28.81-2.27,1.69-3.1.48-.45.59-.76.12-1.26-.25-.26-.41-.61-.66-.98.05,1.51-1.51,2.37-1.32,3.95.16,1.34.03,2.71.03,4.23.87-1.34,1.64-2.52,2.4-3.69l.31.15c-.29.92-.58,1.84-.88,2.76.06.03.12.06.18.09.45-.89.9-1.77,1.46-2.89-.15.82-.26,1.42-.4,2.15.8-.11,1.5-.24,2.21-.28.8-.05,1.61-.02,2.41-.02.63,0,.87.28.67.92-.41,1.28.2,2.3.81,3.46,1.36-3.72,2.13-7.81,2.15-12.22-.01-2.75-.33-5.38-.89-7.88Z"/>
    <path class="cls-2" d="m67.72,45.8c.21-.64-.04-.92-.67-.92-.8,0-1.61-.03-2.41.02-.71.04-1.41.18-2.21.28.14-.73.25-1.33.4-2.15-.57,1.12-1.01,2-1.46,2.89-.06-.03-.12-.06-.18-.09.29-.92.58-1.84.88-2.76l-.31-.15c-.77,1.18-1.53,2.35-2.4,3.69,0-1.52.13-2.89-.03-4.23-.19-1.57,1.38-2.43,1.32-3.95.25.37.41.72.66.98.46.49.35.8-.12,1.26-.88.83-1.56,1.82-1.69,3.1.84-1.46,1.72-2.88,3.34-3.79.59,1.45,1.16,2.84,2.78,3.62-.2-3.47-2.65-5.67-4.21-8.31.05-.05.11-.1.16-.16.5.35,1,.7,1.7,1.19-.18-2.2-.35-4.23-.52-6.25,1.15,1.75,2.36,3.34,4.25,4.3l-1.46-1.9c.11-.1.22-.2.33-.3.55.71,1.1,1.42,1.65,2.13l.24-.22c-.73-.91-1.47-1.81-2.2-2.72.04-.03.08-.06.12-.09.17.09.34.17.73.38-.34-.58-.55-.94-.76-1.31.05-.03.11-.06.16-.1.62.88,1.24,1.76,1.86,2.64.07-.04.14-.08.2-.12-.46-.76-.83-1.6-1.42-2.25-.61-.68-1.42-1.17-2.31-1.88,1.99.18,3.84.34,5.67.5-.05-.23-.1-.46-.16-.69-1.09-.59-2.18-1.17-3.28-1.76.06-.05.12-.11.19-.13.75-.31,1.51-.62,2.27-.92-.19-.56-.39-1.12-.61-1.66-1.72.92-3.54,1.6-5.5,1.7-.67.03-1.42-.27-2.04-.61-.76-.42-1.41-1.03-2.08-1.63,1.81.25,3.59.47,5.36-.14-2.05.07-4.05-.05-5.97-.81,0-.08,0-.15,0-.23,1.35-.12,2.7-.23,4.05-.35,0-.08,0-.16,0-.24-1.49-.37-3.01.03-4.51.01-.04-.11-.07-.23-.11-.34,1.24-.56,2.43-1.3,3.72-1.62.86-.21,2.02-.09,2.79.33,1.3.71,2.5,1.62,3.7,2.5-.18-.41-.37-.81-.57-1.21-.7-.56-1.4-1.13-2.09-1.71-.29-.24-.61-.67-.6-1,.03-.63.01-1.24-.05-1.84-.47-.66-.95-1.3-1.46-1.91,0,.73-.12,1.47-.46,2.23-.57,1.3-1.63,2-3.14,2.49.62-.94,1.13-1.71,1.58-2.38-1.3,1.28-2.67,2.62-4.04,3.96-.1-.08-.19-.17-.29-.25,1.09-2.91,2.6-5.6,4.65-7.98-.01-.01-.02-.02-.03-.03-1.17.85-2.16,1.85-2.87,3.09-.74,1.29-1.39,2.64-2.24,3.95.04-.76.06-1.52.13-2.27.23-2.27.88-4.32,3.01-5.57.24-.14.46-.3.68-.47-.21-.2-.42-.39-.63-.58-.07.15-.18.29-.3.39-.41.37-.87.69-1.31,1.03-.06-.05-.11-.1-.17-.15.2-.52.36-1.07.63-1.54.08-.15.26-.26.44-.35-1.26-1.07-2.59-2.05-3.98-2.93-.6-.15-1.22-.3-1.92-.47.81,1.68,2,2.65,3.66,3.07.33.08.89.36.87.49-.13.98-.38,1.94-.61,3-.76-.71-1.31-1.34-1.97-1.83-1.32-.99-2.9-1.38-4.49-1.7-1.42-.28-1.42-.28-2.06,1.01-1.04-1.33-2.39-2.12-3.97-2.49-.96-.22-1.97-.29-2.94-.47-.29-.05-.68-.19-.81-.41-1.16-1.92-3.03-2.41-5.05-2.5-5.15-.23-9.92,1.06-14.32,3.72-1.8,1.09-3.42,2.4-4.84,3.99-2.26,2.54-2.81,5.6-2.92,8.84-.07,2.18-.15,4.35-.36,6.52-.2,2.16-.85,4.16-2.59,5.65-1.29,1.1-2.75,1.43-4.36.98-.32-.09-.8-.42-.81-.66-.05-.98,0-1.98.13-2.96.05-.31.47-.64.8-.81,1.47-.75,2.55-1.85,3.19-3.37.06-.13.03-.3.05-.58-1.84.56-3.08,1.71-4.2,3.13.18-1.12.36-2.24.55-3.36-.09-.01-.17-.03-.26-.04-.21.92-.42,1.83-.67,2.94-.6-2.38.72-3.99,1.65-5.72-1.33,1.14-2.05,2.57-2.27,4.42-.56-.98-1.05-1.82-1.53-2.65-.07.19-.12.38-.18.56.44,1.3.88,2.6,1.31,3.89-.06-.01-.19-.04-.36-.08.42.64.96,1.2,1.15,1.86.19.68.04,1.46.04,2.19-.06,0-.12.01-.18.02-.16-.35-.31-.71-.49-1.11-.33,1.13-.21,2.77.42,4.2,1.65,3.76,4.85,5.39,8.85,6.04-1.86,2.11-3.94,3.43-6.62,3.38-2.54-.04-4.23-1.02-5.32-2.63.23,1.22.51,2.44.87,3.64,1.46,1.26,3.27,1.94,5.36,2.14.41.04.81.12,1.22.19-.05.23-.05.32-.08.38-.13.23-.27.47-.42.69-1.24,1.84-1.86,3.75-1.86,5.72.69,1.05,1.43,2.07,2.24,3.05.52-1.43,1.26-2.74,2.4-3.81,1.02-.96,2.11-1.83,3.2-2.71,1.89-1.53,3.58-3.21,4.35-5.58.29-.9.45-1.85.66-2.74.19,3.49-1.04,6.37-3.83,8.58-1.14.9-2.26,1.83-3.27,2.87-1.28,1.31-2.19,2.75-2.73,4.27.6.68,1.23,1.35,1.89,1.99.57.55,1.15,1.07,1.74,1.57,1.61-4.51,6.28-7.11,11.1-4.77.55.27,1.16.43,1.77.55,3.12.62,5.8-1.06,6.54-4.15.21-.86.28-1.75.31-2.64.02-.59.22-.92.75-1.19,1.13-.57,2.24-1.18,3.32-1.84,2.38-1.45,4.56-3.1,5.33-5.99.25-.93.43-1.89.65-2.83.08-.34.21-.67.32-1.01.11,0,.22-.01.34-.02.1.39.29.78.3,1.16.02,1.58-.08,3.17,0,4.74.06,1.08.37,2.12,1.52,2.67.2.1.33.52.36.81.35,3.56.59,7.13,1.03,10.67.37,3.05.96,6.07,2.84,8.65.02.03,0,.1-.03.34-2.3,1.09-4.58,1.9-6.85,2.47,8.96-1.84,17.13-7.09,22.36-14.83-.86.16-1.74.16-2.61-.28-.66-.33-1.2-.78-1.1-1.78.83.64,1.56,1.2,2.29,1.76.03-.05.07-.09.1-.14-.93-1-1.85-2-2.78-3,.05-.05.09-.11.14-.16,1.13.57,2.27,1.13,3.4,1.7.06-.11.11-.21.17-.32-1.19-.74-2.37-1.48-3.64-2.26.62.03,1.19.05,1.77.08.01-.09.02-.18.03-.27-.69-.14-1.38-.27-2.14-.43,1.97-.93,4.09-.4,5.16,1.34.27.43.48.9.67,1.37.89-1.58,1.66-3.24,2.3-4.99-.61-1.16-1.22-2.18-.81-3.46Zm-11.75-36.76c-.49-.26-.99-.52-1.48-.77.04-.08.09-.16.13-.24.5.26.99.52,1.49.79-.05.08-.09.16-.14.23ZM8.41,28.03c-.62.62-1.23,1.25-1.85,1.87-.05-.05-.1-.11-.14-.16.62-.61,1.24-1.22,1.86-1.83.04.04.09.09.13.13Zm-.77-.47s.1.1.15.15c-.63.61-1.26,1.22-1.89,1.84-.07-.07-.14-.14-.21-.21.65-.59,1.3-1.18,1.95-1.77Zm4.34,11.33c-1.62.71-3.4.3-4.83-1.11,4.14,1.1,5.76.44,8.05-3.14-.33,1.97-1.37,3.44-3.22,4.25Zm49.1,5.51c.06.03.11.05.17.08-.3.67-.59,1.33-.89,2-.07-.04-.14-.07-.21-.11.31-.66.62-1.31.93-1.97Zm-2.45-2.98c-.05-.04-.11-.09-.16-.13.42-.55.84-1.11,1.27-1.66.07.07.15.13.22.2l-1.33,1.6Zm-.16,8c-.09.06-.19.11-.28.17-.55-.76-1.11-1.52-1.66-2.29l-.2.13c.44.88.88,1.77,1.34,2.68-1.47.31-3.41-.62-4.09-1.85-.8-1.44-.71-3-.67-4.56.01-.52.4-.41.71-.34,2.79.65,4.45,1.64,4.97,4.91-.63-.94-1.3-1.93-1.96-2.91-.06.04-.12.08-.18.11.68,1.31,1.36,2.63,2.04,3.94Zm.07-8.87c-.07-.06-.15-.13-.22-.19.57-.69,1.14-1.38,1.71-2.07l.22.18c-.57.69-1.14,1.39-1.71,2.08Zm3.77-9.18c.07.86.14,1.72.21,2.58l-.19.02-.29-2.57c.09-.01.18-.02.27-.03Zm-5.08-3.96c-.4-1.04-.57-2.16-.84-3.25.06-.02.13-.05.19-.07l1.8,3.17c.11-.06.22-.11.33-.17-.61-1.33-1.23-2.67-1.85-4.02,3.49,1.11,5.76,6.32,4.56,10.43-3.31-.25-5.03-1.92-5.11-6.63.65,1.48,1.2,2.79,2.56,3.64-.59-1.09-1.23-2.05-1.64-3.09Zm.19,12.71c.06.31.08.63.06.96-.55-1.76-1.24-3.4-2.94-4.37,1.28,1.34,2.02,2.92,2.29,4.74-1.28-1.76-2.29-3.71-4.03-5.11.67,1.02,1.35,2.04,2,3.08.16.26.63.51.16.95-.05.05.42.65.68,1.02-2.23-.66-4.03-3.02-4.03-5.22,0-.43.08-.79.63-.66,2.38.53,4.66,2.06,5.19,4.61Zm-8.7-28.76c.06-.21.45-.49.65-.46,1.73.24,3.33.85,4.71,1.94,1.58,1.25,1.79,2.88,1.3,4.7-.76-1.03-1.52-2.04-2.28-3.06-.09.05-.17.1-.26.15,1.08,1.89,2.72,3.58,2.2,6.11-.98-1.28-1.97-2.56-2.95-3.85l-.13.05c.23.49.43,1,.7,1.46.29.51.64.99.86,1.59-1.12-1.04-2.24-2.08-3.36-3.12-.05.04-.1.08-.15.12.63.76,1.27,1.52,1.83,2.2-1.21-.18-2.73-1.65-3.2-3.24-.45-1.54-.34-3.09.08-4.61Zm-.9,8.14c2.61-.41,4.11.13,6.78,2.39-.97-.08-1.72-.13-2.48-.2-.74-.07-1.48-.17-2.25-.16,1.24.68,2.66.63,4.05,1.07-.53.16-1.06.37-1.6.46-.57.1-1.17.08-1.76.18.96.63,2,.24,3.04.12-1.78,3.24-8.11,2.46-10.82-1.36,1.45-1.28,3.09-2.2,5.02-2.5Zm-8.37-4.55c.82-1.23,2.04-1.68,3.47-1.62,1.32.06,2.45.46,3.28,1.82-1.02-.11-1.89-.2-2.76-.29,0,.05-.01.09-.02.14.62.41,1.24.82,1.98,1.31-.59.04-1.06.07-1.52.1v.32c.84.05,1.7.1,2.73.17-.49.16-.85.35-1.22.4-2.12.25-4.06-.27-5.74-1.59-.17-.14-.32-.61-.22-.76Zm-2.7-3.18c-1.82,3.09-6,3.31-10.17,2.11q5.64.23,10.17-2.11Zm-20.51,18.09c.92.23,1.59.38,2.26.55.52.13,1.03.35,1.56.4,1.37.13,1.79,1.12,2.1,2.22.04.16.03.39-.05.52-.47.7-2.31,1.34-3.14,1.09-.24-.07-.51-.23-.63-.43-.58-.99-1.14-2.01-1.67-3.03-.17-.32-.23-.7-.42-1.32Zm29.56,9.29c-.35-.26-.63-.47-.91-.68.69,3.1.28,6.15.4,9.19-.1.04-.19.09-.29.13-.21-.29-.54-.55-.61-.87-.41-1.93-.5-3.89-.13-5.84.05-.28.33-.52.59-.91-1.11-.24-1.63-1.09-1.85-2.2-.09.02-.18.03-.27.05-.23.72-.5,1.44-.68,2.18-.23.94-.38,1.9-.6,2.84-.51,2.24-1.73,4.02-3.69,5.18-2.45,1.45-4.93,2.87-7.49,4.12-2.48,1.21-4.67.45-6.1-1.89-1.54-2.52-3.11-5.04-4.56-7.61-1-1.78-1.48-3.75-1.32-5.83.05-.72.52-1.06,1.25-1,.25.02.52-.19.86-.33.04.04.17.15.27.24.56-.52,1.09-1.01,1.82-1.69-.09,1.2-.13,2.25-.26,3.29-.08.64-.26,1.26-.41,1.89-.44,1.85.06,2.71,2.09,3.19-.21-.22-.39-.49-.64-.67-1.35-1-1.39-1.08-.87-2.68.61-1.9.96-3.88.39-5.8-.4-1.33-1.1-2.66-1.99-3.72-1.03-1.21-2.64-1.31-4.19-1.19-.1,0-.2.03-.44.06.05-.88,0-1.73.16-2.52.34-1.63,1.91-2.49,3.94-2.21.47.06.78.06.91-.47.71-2.85,2.85-4.18,5.41-5.02.92-.3,1.88-.48,2.83-.62,1.72-.26,3.07.47,4.04,1.83,1.52,2.12,3.35,3.91,5.45,5.46,1.1.82,1.64,1.97,1.66,3.35.02,1.02-.02,2.05,0,3.07,0,.35.03.71.13,1.03.25.82.83,1.04,1.56.57.38-.25.68-.6,1.04-.89.39-.32.77-.69,1.22-.91,1.14-.58,2.17-.17,2.61,1,.96,2.57.04,4.76-1.34,6.89Zm3.24-5.39c-.2.03-.62-.18-.64-.32-.13-1.33-.32-2.67-.26-4,.07-1.62,1.32-2.52,2.53-3.34.95-.64,1.95-1.2,2.93-1.8.06.05.12.11.17.16-1.2,1.2-2.39,2.39-3.61,3.6,1.91-.99,3.35-2.51,4.67-4.18-.42,1.76-1.11,3.35-2.59,4.48,1.81-.58,2.44-2.15,3.08-3.77,1.01,2.19-.06,5.97-2,7.41-1.29.95-2.75,1.46-4.3,1.74Zm.8,20.29c1.12-2.26,3.98-4.7,7.27-3.04-1.86.15-3.65.33-4.98,1.46,1.7-.38,3.51-.78,5.32-1.18.02.08.04.15.06.23-.55.18-1.11.36-1.66.56-.53.19-1.05.41-1.58.61l.1.29c.97-.25,1.93-.49,3.13-.8-.46.42-.73.67-1.01.92l.14.18c.38-.25.77-.5,1.17-.77-2.34,3.4-4.1,3.69-7.97,1.53Zm9.15,5.33c-.86.78-1.87,1.41-2.81,2.12-1.77-2.68-1.28-5.33,1.34-7.23-.31.94-.58,1.76-.86,2.58.07.02.13.05.2.07.63-1.28,1.27-2.55,1.9-3.83.09.03.18.06.27.09-.05.79-.09,1.58-.14,2.37.07.02.14.04.2.06.22-.72.44-1.44.67-2.2,1.2,2.09.92,4.44-.78,5.98Zm8.13-13.29c-.26,2.31-2,3.98-4.53,4.29-.61.08-1.22.15-2.07.25,1.82-1,3.75-1.43,5.09-3.11-1.72.79-3.29,1.51-4.86,2.23-.04-.06-.07-.13-.11-.19.81-.64,1.62-1.28,2.43-1.92-1.5.29-2.4,1.42-3.41,2.5.02-2.12,1.6-4.05,3.72-4.47,1.04-.21,2.14-.17,3.21-.24.46-.03.58.19.53.66Z"/>
    <path class="cls-2" d="m60.76,8.65c-.12-.1-.24-.2-.36-.3-.08-.07-.16-.14-.25-.21-.07-.06-.14-.11-.22-.17-.15-.12-.31-.24-.46-.36-.12-.09-.23-.18-.35-.27-.34-.26-.69-.51-1.05-.76-.86-.6-1.75-1.17-2.66-1.69-.88-.5-1.79-.97-2.71-1.4-.71-.33-1.42-.63-2.15-.91-3.58-1.42-7.21-2.22-10.8-2.48C19.14-1.42-.1,14.97,0,37.04c0,1.75.11,3.47.34,5.14.2,1.46.48,2.9.85,4.29,1.06,4.06,2.8,7.81,5.07,11.15.6.88,1.23,1.74,1.9,2.56.25.31.5.61.76.9,1.12,1.3,2.34,2.51,3.62,3.64,9.93,8.71,24.36,12.17,38.02,6.77,13.91-5.29,23.6-19.57,23.46-34.46.11-10.88-5.05-21.43-13.26-28.39Zm5.47,45.6c-.46.82-.95,1.61-1.47,2.38-5.23,7.74-13.41,12.99-22.36,14.83-9.88,2.03-20.71-.11-29.58-7.64-.59-.5-1.17-1.02-1.74-1.57-.67-.64-1.29-1.31-1.89-1.99-.26-.29-.51-.58-.76-.88-.81-.98-1.56-2-2.24-3.05-1.86-2.84-3.27-5.92-4.22-9.11-.36-1.2-.64-2.41-.87-3.64C-.01,37.7.39,31.55,2.28,25.83c.06-.19.12-.38.18-.56,1.73-4.97,4.6-9.6,8.61-13.44C22.9.47,38.82-.5,51.23,5.67c.75.37,1.49.77,2.21,1.2.37.21.73.44,1.09.66,1.39.88,2.72,1.86,3.98,2.93.24.2.47.41.7.62.21.19.42.38.63.58.44.41.87.84,1.28,1.27.01.01.02.02.03.03.59.62,1.16,1.26,1.71,1.92.51.62.99,1.26,1.46,1.91,1.02,1.43,1.93,2.95,2.73,4.55.2.4.39.8.57,1.21.21.47.41.94.6,1.43.22.55.42,1.1.61,1.66.31.92.58,1.85.82,2.81.06.23.11.46.16.69.56,2.5.87,5.13.89,7.88-.02,4.4-.79,8.49-2.15,12.22-.64,1.75-1.42,3.41-2.3,4.99Z"/>
  </g>
  <g>
    <path class="cls-2" d="m113.51,14.25c.12.11.22.23.32.38.1.14.18.28.24.41.07.13.12.29.17.48.05.19.08.35.11.47.03.13.05.31.06.53s.02.39.02.51,0,.29-.02.54c-.02.25-.03.42-.03.5s-.02.25-.04.51-.04.41-.04.46c-.14,1.7-.46,3.4-.96,5.09-.5,1.7-1.17,3.64-2.02,5.84-.57,1.48-1.44,3.57-2.61,6.27.13.35.15.72.09,1.1-.03.18-.12.3-.27.36s-.29.05-.43-.02c-.09.22-.22.52-.39.92s-.32.76-.46,1.08c-.14.32-.26.63-.38.92-.66,1.63-1.16,3.08-1.51,4.34-.35,1.26-.52,2.52-.5,3.77,0,.32-.07.59-.24.83-.17.24-.38.4-.64.49-.25.09-.52.12-.79.11-.27-.02-.52-.12-.75-.3s-.39-.42-.47-.72c-.16-.59-.25-1.21-.26-1.84-.02-.64.04-1.29.16-1.97.13-.68.26-1.28.41-1.81.15-.53.34-1.14.57-1.85.5-1.52,1.22-3.37,2.16-5.56-.17,0-.42,0-.78-.02-1.84-.11-3.82-.19-5.92-.24-.37,0-.86-.01-1.49-.01h-1.49c-3.35,4.66-5.77,7.98-7.26,9.97-.25.33-.64.86-1.16,1.58-.52.72-.99,1.35-1.4,1.89-.41.54-.82,1.05-1.23,1.51-.3.34-.66.58-1.07.72-.41.14-.79.14-1.14,0-.2,0-.38-.05-.53-.16-.15-.11-.25-.26-.29-.46-.06-.31-.09-.61-.1-.91,0-.3.01-.59.07-.88.05-.29.12-.56.21-.83.08-.26.19-.53.33-.81.13-.28.27-.54.4-.77s.29-.49.47-.76c.18-.27.35-.52.49-.74.15-.22.32-.46.51-.74.2-.28.36-.52.49-.73,1.04-1.6,1.83-2.89,2.37-3.87.17-.31.28-.53.35-.67.07-.14.15-.35.24-.62.1-.28.13-.53.11-.76s-.1-.46-.22-.68c-.29-.54-.76-.87-1.4-.98-.51.03-.82.03-.92.03-.22,0-.4-.1-.52-.29-.12-.2-.15-.4-.09-.61.06-.21.21-.33.44-.38.54-.16,1.18-.28,1.91-.37s1.28-.15,1.66-.16c.38-.02,1.08-.03,2.12-.04,1.04,0,1.61-.01,1.72-.01.53,0,1.31-.01,2.36-.01.22-.32.56-.79,1.02-1.41.45-.62.8-1.09,1.03-1.4,2.64-3.6,4.91-6.57,6.8-8.91.13-.17.5-.62,1.1-1.37.6-.75,1.03-1.28,1.29-1.59.26-.31.64-.75,1.13-1.33.5-.58.96-1.09,1.39-1.52.43-.43.86-.85,1.31-1.24.02-.03.05-.08.1-.15.27-.31.56-.58.87-.82.32-.24.66-.44,1.03-.61.37-.16.75-.22,1.14-.17s.75.22,1.07.52Zm-23.98,26.47c1.27-1.73,2.46-3.37,3.59-4.94h-1.05c-.69,0-1.04,0-1.04,0-.74.02-1.85.08-3.31.2.39.5.63,1.07.72,1.72.09.65,0,1.31-.28,2.01-.13.3-.27.62-.44.96s-.31.63-.44.88c-.13.24-.3.56-.53.96s-.39.68-.48.84c-.1.16-.28.48-.56.94-.28.47-.45.75-.51.86-.07.11-.29.47-.66,1.07-.38.61-.65,1.08-.82,1.42.18.04.31.12.39.25.03-.03.06-.09.12-.16s.1-.12.13-.16c.18-.22.8-1.02,1.84-2.39,1.02-1.36,2.14-2.85,3.34-4.49Zm22.22-22.36c.02-.08.05-.21.09-.39.04-.19.08-.35.1-.47.02-.13.05-.28.07-.46s.04-.34.03-.48c0-.15-.03-.28-.07-.39-.02-.06-.03-.11-.04-.16,0-.05,0-.08,0-.1,0-.02,0-.03,0-.04,0,0-.02-.01-.02,0,0,0-.04.01-.1.02-.06,0-.12.02-.19.02-.23.02-.64.24-1.22.66-.33.41-.81.98-1.46,1.7-.65.73-1.1,1.24-1.36,1.55-1.54,1.82-2.92,3.51-4.12,5.05-1.9,2.42-4.24,5.55-7.01,9.39.81,0,2.01.04,3.61.09,2.17.07,4.04.18,5.59.31.58-1.32.89-2,.91-2.05,1.52-3.18,2.84-6.41,3.96-9.67.48-1.42.9-2.94,1.24-4.56Z"/>
    <path class="cls-2" d="m117.82,28.57c-.33.78-.92,2.12-1.79,4.04-.87,1.92-1.58,3.59-2.12,5.01-.54,1.42-.97,2.83-1.28,4.22-.5,2.2-.29,3.35.62,3.44.13.02.28,0,.44-.06s.3-.12.42-.19c.12-.07.27-.18.44-.34.17-.15.3-.27.38-.36.08-.08.2-.21.36-.39.16-.18.26-.28.28-.31.61-.65,1.64-1.9,3.1-3.76.09-.12.21-.15.36-.11.15.04.25.12.31.24.06.12.05.24-.01.37-.07.09-.3.39-.69.91-.38.51-.65.86-.79,1.04-.15.18-.38.47-.69.86-.31.39-.6.72-.85.99-.25.28-.52.55-.79.81-.29.27-.54.49-.73.66-.2.16-.46.32-.79.47-.33.15-.64.21-.94.18-.38-.04-.72-.17-1.01-.39-.29-.22-.51-.5-.67-.84-.16-.34-.28-.68-.36-1.02-.08-.35-.13-.7-.14-1.07-.02-.71.03-1.51.16-2.42.13-.9.24-1.58.34-2.03.1-.45.29-1.24.56-2.36,1.19-4.88,3.15-10.09,5.87-15.61.15-.3.37-.51.66-.64.29-.13.58-.16.88-.09.29.06.57.18.83.35s.44.4.53.69c.09.29.08.59-.02.91-.34.88-.85,2.11-1.53,3.71s-1.12,2.64-1.32,3.12Z"/>
    <path class="cls-2" d="m149.69,46.97c.36-.06.67.03.94.26.27.23.4.52.39.85-.01.33-.19.6-.53.8-.44.26-.91.42-1.4.49-.49.07-.96.07-1.39,0-.44-.07-.9-.21-1.39-.43-.49-.22-.93-.45-1.33-.69s-.81-.55-1.27-.92c-.45-.37-.83-.69-1.13-.96-.3-.27-.63-.59-1.01-.96-1.09-1.07-2.44-2.54-4.05-4.42-.03-.02-.06-.06-.11-.11-.05-.05-.08-.09-.11-.11-1.39,3.5-2.55,6.23-3.46,8.2-.13.27-.34.42-.62.42-.28,0-.52-.1-.72-.32-.2-.22-.26-.47-.19-.74.68-2.61,1.65-5.88,2.89-9.81-.35-.3-.6-.53-.76-.69-.15-.17-.21-.36-.19-.56s.12-.37.3-.51c.18-.14.38-.18.59-.12.08.02.28.1.59.21.05-.17.13-.42.23-.76.1-.34.19-.6.24-.77,1.24-3.87,1.95-6.04,2.11-6.54.03-.08.1-.31.22-.67.12-.36.2-.6.24-.71s.11-.33.22-.66c.11-.33.2-.57.25-.72.05-.15.14-.37.24-.66.11-.29.2-.53.27-.71.08-.18.16-.4.27-.64.1-.25.21-.48.31-.69.1-.21.21-.42.32-.63.21-.39.49-.64.86-.73.36-.1.7-.07,1.02.08.32.15.58.4.79.74s.26.71.18,1.11c-.08.4-.18.8-.29,1.21-.11.41-.26.86-.43,1.36-.18.5-.31.88-.41,1.15-.1.27-.26.71-.51,1.33s-.39,1.01-.45,1.17c-.54,1.43-1.36,3.58-2.46,6.45-.08.21-.2.51-.36.91s-.27.7-.35.91c.02.02.04.04.07.06s.05.04.07.05c.1.08.25.21.44.39.19.18.34.3.44.39.81.11,1.56-.01,2.25-.36.58-.3,1.14-.74,1.67-1.31s.96-1.12,1.28-1.65c.32-.53.67-1.15,1.02-1.87.67-1.33,1.18-2.71,1.54-4.14.36-1.43.52-2.93.49-4.49-.04-1.57-.33-3-.87-4.31-.52-1.23-1.29-2.27-2.33-3.11-1.03-.84-2.17-1.35-3.4-1.53-1.24-.18-2.49.05-3.77.68-1.48.8-2.63,1.99-3.44,3.57-.17.33-.3.67-.41,1.05s-.17.76-.18,1.16c0,.4.04.76.15,1.09.11.33.31.61.61.84.3.23.69.36,1.16.39.27.02.47.12.62.3.15.18.21.39.17.63-.04.24-.16.43-.38.58-.73.47-1.47.65-2.21.54-.74-.11-1.41-.43-2.02-.97-.61-.54-1.04-1.19-1.27-1.94-.34-1.11-.33-2.28.04-3.52.37-1.24.95-2.38,1.74-3.42,1.37-1.81,3.11-3.01,5.21-3.61s4.19-.43,6.27.49c1.32.61,2.46,1.49,3.4,2.66.94,1.16,1.63,2.43,2.07,3.8.44,1.37.67,2.8.68,4.29.02,2.31-.38,4.61-1.2,6.9-.82,2.29-1.97,4.3-3.45,6.04-1.21,1.41-2.53,2.25-3.97,2.53.09.08.34.3.74.64s.7.61.91.81c1.7,1.57,3.1,2.72,4.19,3.47.1.07.27.19.51.38.24.18.45.33.62.44.18.11.38.23.61.36.23.13.46.22.69.26s.44.05.64.02Z"/>
    <path class="cls-2" d="m159.45,39.98c.14-.16.31-.16.49-.02.19.15.22.31.11.48-.81,1.16-1.57,2.17-2.3,3.03-.72.86-1.5,1.61-2.32,2.23-.76.58-1.44.87-2.05.9-.75.04-1.51-.29-2.29-.99-.88-.79-1.31-1.92-1.28-3.4.03-1.32.44-2.6,1.22-3.85.63-1.02,1.48-1.9,2.54-2.61.1-.07.23-.17.4-.32s.3-.25.39-.32c.07-.04.18-.1.32-.19.15-.08.26-.15.34-.2.56-.35,1.07-.56,1.52-.64.81-.13,1.44,0,1.9.4h.02s.02.02.03.02c0,.02.02.04.03.06s.02.04.03.05c.13.13.2.21.21.22.14.27.2.6.18.99,0,.19-.02.36-.05.5,0,0,0,.02-.01.04,0,.02-.01.03-.01.04-.02.13-.04.2-.04.21-.02.06-.05.14-.1.25s-.08.18-.1.22l-.04.07c-.22.49-.47.88-.72,1.17-.53.59-1.08,1-1.66,1.21-.31.13-.64.16-1.01.09-.36-.06-.66-.21-.89-.44,0,0,0,.02-.01.04-.28.62-.45,1.02-.54,1.21h0c-.07.16-.11.27-.14.35-.03.09-.1.3-.2.61-.03.1-.09.25-.16.44s-.13.36-.18.52-.09.3-.12.44c0,.07-.03.16-.06.29s-.05.22-.07.29c-.02.1-.04.21-.04.33.03.25.04.43.06.53s.06.24.13.39c.08.16.18.28.31.36.64.42,1.58.02,2.83-1.2.47-.47,1.12-1.19,1.93-2.17.81-.98,1.27-1.54,1.38-1.66Zm-4.09-3.02c-.13.19-.28.47-.44.85,0,.05-.01.13-.01.25,0-.02,0-.02.01.01.02.08.02.13.02.14,0,.02,0,.05.03.09.09.18.25.29.47.33.2.02.42-.02.65-.14.22-.11.47-.28.74-.52.5-.46.85-.93,1.05-1.42.09-.22.15-.44.18-.65.02-.54-.21-.8-.69-.76-.09,0-.19.03-.28.06-.1.03-.19.08-.28.14-.09.06-.17.12-.24.17s-.15.13-.25.22c-.1.1-.17.18-.22.23-.05.05-.12.15-.22.28-.1.13-.16.21-.19.26-.03.04-.09.13-.18.26-.09.13-.14.21-.15.22Z"/>
    <path class="cls-2" d="m172.6,39.98c.12-.17.27-.25.45-.24s.32.09.42.25c.11.16.11.33,0,.51-.17.27-.43.74-.78,1.38s-.67,1.2-.96,1.67c-.28.47-.58.9-.9,1.3-.35.44-.7.8-1.05,1.07-.35.27-.74.43-1.18.46-.35.03-.71-.03-1.09-.15-.38-.13-.69-.3-.93-.54-.32-.3-.53-.73-.65-1.28,0-.04-.02-.14-.05-.3l-.04-.24s-.01-.09-.02-.16c0-.07,0-.12,0-.16-.02-.27,0-.53.04-.8.15-1.1.49-2.28,1.02-3.55.07-.18.19-.43.34-.75.15-.33.26-.55.31-.66.05-.12.08-.2.09-.22.03-.05.07-.17.13-.35.1-.27.17-.47.21-.6.02-.06.05-.18.09-.35l.05-.22s0,.05-.01.1h0c.02-.09.04-.16.05-.2h-.01s-.01,0-.01.01v.07-.02s-.02.02-.02.04v-.02s.01-.03.01-.04c-.02-.05-.03-.08-.03-.1,0,0-.02-.02-.02-.03,0-.01-.02-.02-.03-.03l-.11-.11s-.06-.03-.13-.08c-.07-.04-.12-.08-.15-.11-.02.02-.08.04-.18.06s-.16.04-.19.04c-.32.12-.72.39-1.19.82-.69.63-1.54,1.67-2.55,3.1-1.65,2.35-2.87,4.38-3.66,6.1-.02.05-.07.09-.14.13,0,.02-.02.06-.04.11s-.04.09-.06.11c-.13.27-.34.42-.61.42s-.51-.1-.71-.32c-.2-.22-.26-.47-.19-.74.88-3.36,2.12-7.56,3.74-12.6.22-.67.53-1.67.92-3.02.4-1.35.73-2.43.99-3.27s.61-1.81,1.05-2.94c.44-1.12.88-2.13,1.34-3.01.16-.32.38-.54.65-.67.27-.13.55-.16.82-.09.28.07.53.19.77.36s.41.4.53.7c.12.3.14.6.07.92-.08.4-.18.8-.3,1.21-.12.41-.26.85-.43,1.34s-.3.87-.41,1.16c-.11.29-.27.73-.5,1.32s-.38.98-.45,1.17c-.65,1.73-1.42,3.75-2.31,6.06-.9,2.35-1.68,4.33-2.35,5.95.54-.81.93-1.37,1.16-1.69.25-.34.43-.58.53-.73.1-.14.29-.38.55-.72s.47-.59.64-.77.38-.39.65-.66c.27-.26.52-.46.74-.61.22-.14.47-.28.75-.41.28-.13.55-.22.82-.26.54-.09,1.05-.02,1.52.2s.83.58,1.07,1.06c.44.88.39,2.03-.15,3.45-.43,1.13-.95,2.22-1.59,3.27-.12.2-.25.45-.4.76l-.11.26s0,.02-.01.04-.02.04-.02.06c0,.03-.02.05-.03.06l-.09.2-.1.24s.02-.04.03-.08c0,.03-.03.09-.05.16-.02.07-.05.12-.06.16,0,.02-.02.06-.02.1,0,.04-.01.07-.01.08,0,.02,0,.06,0,.1,0,.04,0,.08,0,.1v.05s.02.03.03.05h-.03s.13.25.13.25c.03.07.03.06-.01-.01.02.02.03.05.04.06l.04.04c.04.08.09.13.14.16.12.08.24.13.36.14.13,0,.25-.03.38-.1.13-.08.24-.15.34-.22.1-.07.21-.18.34-.34s.21-.26.26-.33.13-.17.22-.31c.34-.48.79-1.19,1.34-2.14.55-.95.87-1.51.96-1.66Zm-4.45-4.04h0s0-.02.01-.04v-.04s0,.03-.02.06h.01Z"/>
    <path class="cls-2" d="m193.78,39.98c.13-.17.27-.25.45-.24s.32.09.43.25c.11.16.11.33,0,.51-.17.27-.43.74-.78,1.38-.35.65-.67,1.2-.96,1.67-.28.47-.58.9-.9,1.3-.35.44-.7.8-1.05,1.07-.35.27-.74.43-1.17.46-.35.03-.71-.03-1.09-.15-.38-.13-.69-.3-.93-.54-.32-.3-.53-.73-.65-1.28,0-.04-.03-.14-.05-.3l-.04-.24s-.02-.09-.02-.16c0-.07,0-.12,0-.16-.02-.27,0-.53.04-.8.14-1.07.49-2.25,1.04-3.55.08-.18.19-.45.35-.79s.25-.55.29-.62c.03-.08.06-.16.09-.24.06-.13.1-.24.14-.35.05-.13.12-.33.2-.6.03-.07.05-.19.09-.34l.05-.22s0,.05-.01.1v.08s.02-.11.06-.29h-.02s0,.01,0,.01c0,0,0,.02-.01.02v.05-.02s-.01.04-.01.04v-.05s-.01-.06-.01-.11l-.06-.06s-.04-.02-.06-.04c-.02-.02-.04-.04-.05-.06-.02,0-.06-.03-.13-.08-.07-.04-.12-.08-.15-.11-.03.02-.09.03-.18.05-.1.02-.16.03-.19.04-.32.12-.71.39-1.18.82-.7.64-1.55,1.68-2.56,3.11-.81,1.16-1.52,2.24-2.14,3.25-.03.04-.05.11-.08.2-.03.09-.06.16-.08.2-.39.91-.83,1.71-1.32,2.41l-.04.04c-.39.53-.87.71-1.44.55-.27-.08-.5-.23-.7-.48-.2-.24-.28-.5-.25-.77.1-.93.36-1.93.79-3,.05-.13.13-.32.24-.57.11-.25.19-.42.22-.51-.07.16-.07.16-.01.01.05-.13.08-.21.09-.22.02-.04.04-.1.08-.18.03-.08.06-.13.07-.18.04-.1.13-.34.27-.73.03-.1.09-.24.16-.41s.12-.28.14-.33c-.04.09-.06.14-.06.15l.1-.24c.27-.66.5-1.2.71-1.64,0-.02.03-.07.06-.15l.1-.19s0,.03-.03.06c0-.02.03-.09.08-.21.04-.11.08-.2.11-.26.03-.05.05-.1.06-.15,0-.03.02-.08.03-.14s.02-.1.03-.13l.1-.29s0,.04-.01.06c.03-.11.05-.19.04-.24h0s-.02-.08-.03-.09c0,.03,0,.04,0,.02l-.06-.1c-.13-.12-.2-.19-.21-.2-.18-.09-.37-.11-.58-.07-.2.05-.41.14-.62.27-.21.13-.42.29-.61.47-.2.18-.38.36-.55.55-.17.19-.32.35-.44.49-.02.03-.05.06-.07.09s-.04.05-.06.06c-1.07,1.21-2.23,2.82-3.49,4.82-.57.92-.95,1.55-1.16,1.91-.22.54-.37.87-.42.98-.18.35-.33.64-.48.88-.12.19-.26.35-.42.47l-.06.04c-.14.13-.32.17-.54.14-.22-.03-.35-.16-.38-.37,0-.03-.01-.07-.01-.13-.02-.03-.04-.05-.04-.06-.04-.18-.05-.34-.02-.49.07-.55.13-.96.18-1.23.07-.37.19-.88.36-1.56s.29-1.15.35-1.44c.2-.94.47-2.07.82-3.4.16-.6.38-1.2.65-1.8.31-.7.58-1.15.81-1.35.47-.41.97-.5,1.51-.27s.83.65.88,1.26c0,.12,0,.25-.03.41s-.05.28-.07.36-.06.23-.13.44c-.06.21-.1.33-.11.36-.15.5-.37,1.08-.66,1.74l-.15.34h.01c1-1.52,1.98-2.73,2.93-3.65.67-.65,1.25-1.05,1.76-1.21.3-.1.64-.12,1.02-.06.38.06.69.2.92.41.32.29.57.64.75,1.06.18.41.3.85.34,1.31.04.46.04.9,0,1.33s-.11.86-.21,1.31c.48-.71.78-1.14.89-1.29.25-.34.43-.58.53-.73.1-.14.29-.38.55-.72s.48-.59.64-.77c.16-.18.38-.39.65-.66.27-.26.52-.46.74-.61.22-.14.47-.28.75-.41.28-.13.55-.22.82-.26.54-.09,1.05-.02,1.52.2.48.22.83.58,1.08,1.06.44.88.39,2.03-.15,3.45-.42,1.13-.95,2.22-1.59,3.27-.12.2-.25.45-.4.76l-.11.26s0,.03-.02.08c-.02.04-.03.07-.04.09l-.09.2-.1.24s.02-.04.02-.08c-.02.03-.04.09-.06.16-.03.07-.04.12-.05.16,0,.02-.02.06-.03.1,0,.04-.01.07-.01.08,0,.02,0,.06,0,.1,0,.04,0,.08,0,.1v.05s.02.03.03.05h-.03s.13.25.13.25c.03.07.03.06-.01-.01.02.02.03.05.04.06l.04.04c.04.08.09.13.14.16.12.08.24.13.36.14s.25-.03.38-.1c.13-.08.24-.15.34-.22.1-.07.21-.18.34-.34.12-.15.21-.26.26-.33.05-.07.12-.17.22-.31.34-.48.79-1.19,1.34-2.14.55-.95.87-1.51.96-1.66Zm-4.45-4.04h0s0-.02.01-.04v-.04s0,.03-.03.06h.01Z"/>
    <path class="cls-2" d="m208.8,40.02c.16-.19.34-.2.53-.04.2.17.24.35.13.56-.35.67-1.02,1.73-2.01,3.2-.63.94-1.21,1.61-1.74,2.01-.53.43-1.14.63-1.83.62-.69-.01-1.28-.26-1.77-.74-.38-.37-.69-.9-.91-1.56-.13-.37-.2-.74-.24-1.1v-.06c-.03-.18-.05-.3-.06-.36v-.31s-.04.07-.06.13c-.03.06-.05.1-.06.13-.51.88-.95,1.58-1.31,2.1-.21.3-.36.51-.46.64s-.25.29-.46.49c-.21.2-.42.35-.62.46-.55.24-1.09.3-1.61.18s-1.01-.37-1.45-.76c-.03-.02-.05-.04-.05-.05l.09.06s-.07-.06-.14-.11c-.07-.05-.12-.09-.15-.12-.09-.08-.19-.2-.29-.34-.04-.05-.09-.13-.14-.22-.05-.1-.09-.16-.11-.18-.29-.48-.47-.89-.54-1.22-.04-.19-.07-.38-.08-.58h0c0-.09,0-.24-.02-.46s-.03-.37-.02-.48c.07-.78.16-1.34.27-1.66.34-1.02.82-1.97,1.42-2.86.62-.91,1.29-1.65,2-2.22.71-.57,1.53-.97,2.46-1.2.18-.04.37-.04.6,0,.04,0,.17.02.39.05.22.02.39.05.49.09.56.13,1.02.37,1.4.71.05.04.1.09.14.14.04.05.09.12.13.19.05.07.09.13.12.17.09-.13.24-.33.44-.6.02-.03.13-.13.32-.3l.13-.11s-.04.03-.09.06c.13-.11.23-.18.29-.21.15-.08.33-.16.55-.24.45-.13.85-.06,1.2.23.35.29.54.66.57,1.12,0,.09,0,.23-.04.42v.07h-.01v.04s0-.03.01-.04c-.04.27-.13.55-.28.86-.03.08-.09.21-.17.38s-.14.29-.18.38c-.03.05-.06.12-.1.21-.04.09-.07.15-.09.19-.02.02-.03.06-.06.12-.02.05-.04.09-.04.12-.04.09-.1.23-.18.42-.07.19-.13.33-.16.42-.08.2-.19.5-.33.89-.15.39-.26.68-.33.88-.13.32-.21.51-.24.56v.04s-.03.05-.04.09-.03.08-.04.1c-.01.03-.02.05-.03.08-.22.56-.33.86-.35.91.03.05.01.17-.04.36-.02.1-.05.18-.06.23-.03.2-.05.35-.06.45v.15s0,.1,0,.18c0,.08,0,.14,0,.18v.05s0,.04.01.06c0,.02.02.06.03.1s.02.08.03.1c0,0,.02.04.04.09.03.05.05.09.06.09,0,0,0,.02.02.04.01.02.02.04.03.04,0,0,0,.02.01.03s.02.02.03.02c.02.02.05.04.1.08h.01c.18.13.32.19.45.2.35.02.78-.22,1.29-.71.48-.45,1.06-1.17,1.74-2.14.69-.98,1.18-1.63,1.47-1.97Zm-15.34,2.83c-.02-.1-.03-.15-.02-.15v.11s.01.01.01.01c0,0,.01.02.01.03Zm4.92,1.07c.74-.89,1.62-2.26,2.64-4.1v-.05s0-.05.01-.06c.11-.62.32-1.3.62-2.04.19-.47.45-1.01.76-1.61-.27-.33-.55-.53-.84-.62-.21-.07-.42-.07-.65-.01-.03,0-.09.04-.16.09l-.11.06-.03.02s-.13.12-.29.24h-.01s-.05.09-.1.16c-.1.14-.11.15-.04.02-.03.05-.08.12-.14.2-.06.08-.11.15-.14.2-.02.02-.04.06-.07.11s-.05.09-.07.11l-.22.27s.06-.07.11-.14c0,0-.02.02-.03.04,0,.02-.02.04-.02.04-.06.11-.16.25-.29.44-.14.18-.23.31-.27.39-.63.97-1.07,1.66-1.3,2.07-.21.38-.39.75-.55,1.11,0,0-.02.05-.04.14-.03.08-.06.14-.08.18h0s-.08.16-.15.32l-.14.32s.05-.08.1-.18c0,.02-.05.11-.11.29-.07.19-.14.33-.19.41-.02.05-.03.12-.04.21-.01.09-.02.14-.02.14-.08.21-.13.34-.13.39v.02c-.04.31-.07.48-.08.5,0,.02-.01.03-.01.04,0,.08,0,.15-.01.19h.01s.01.03.01.04v-.02s-.01.06.01.1c0,0,.01,0,.01.01h0s.01.03.01.04c0,0,0-.02-.01-.04.06.12.1.2.13.24l.11.11s.06.06.11.11c.05.05.09.08.11.1,0,0,0,.01.03.01,0,0,.02,0,.02.01.2.13.33.2.4.2.28,0,.66-.28,1.12-.85Zm-2.04.06s0-.02-.01-.04c0-.02-.01-.04-.01-.04,0,0,.01.02.01.04v.05Zm.76-2.86c.02-.07.05-.11.07-.13v.04l-.1.15s.03-.05.03-.06Z"/>
    <path class="cls-2" d="m221.87,39.98c.13-.17.27-.25.45-.24s.32.09.42.25c.11.16.11.33,0,.51-.17.27-.43.74-.78,1.38-.35.65-.67,1.2-.96,1.67-.28.47-.58.9-.9,1.3-.35.44-.7.8-1.05,1.07-.35.27-.74.43-1.17.46-.35.03-.72-.03-1.09-.15-.38-.13-.69-.3-.93-.54-.32-.3-.53-.73-.65-1.28,0-.04-.03-.14-.05-.3l-.04-.24s-.02-.09-.02-.16c0-.07,0-.12,0-.16-.02-.31,0-.58.03-.8.12-1.03.47-2.22,1.04-3.55.08-.18.19-.43.34-.75.15-.33.26-.55.31-.66.03-.08.06-.16.09-.24.03-.08.08-.19.13-.34.1-.27.17-.47.21-.6.02-.06.05-.18.09-.35l.05-.22s0,.05-.01.1h0c.02-.09.03-.15.05-.21h-.01s-.01,0-.01,0v.07s-.01.01-.02.01c0,0,0,0,0,.01h0s.01-.04.01-.05c-.02-.05-.03-.08-.03-.1,0,0-.02-.02-.02-.03,0-.01-.02-.02-.03-.03l-.11-.11s-.06-.03-.13-.08c-.07-.04-.12-.08-.15-.11-.03.02-.09.04-.18.06s-.16.04-.19.04c-.32.12-.72.39-1.19.82-.69.63-1.54,1.67-2.55,3.1-1.02,1.45-1.89,2.81-2.61,4.07-.22.54-.38.91-.48,1.1-.14.27-.3.57-.49.88-.13.22-.27.38-.41.49-.06.03-.08.04-.06.02-.14.13-.32.17-.54.14-.22-.03-.35-.16-.38-.37,0-.03-.01-.06-.01-.11-.03-.02-.04-.05-.04-.07-.04-.18-.05-.34-.03-.49.07-.55.13-.96.18-1.23.07-.37.19-.88.36-1.56.17-.67.29-1.15.34-1.44.17-.8.45-1.93.84-3.4.16-.6.37-1.2.65-1.8.31-.68.58-1.13.81-1.34.47-.41.97-.5,1.51-.28s.83.65.88,1.26c0,.12,0,.25-.03.41-.02.15-.05.27-.07.36s-.06.23-.12.44c-.06.2-.1.32-.11.36-.15.5-.37,1.08-.66,1.74,0,.02-.02.06-.04.11-.02.05-.04.09-.06.11.05-.08.13-.19.23-.34.1-.15.19-.27.24-.34.25-.34.43-.58.53-.73.1-.14.29-.38.55-.72s.48-.59.64-.77c.16-.18.38-.39.65-.66.27-.26.52-.46.74-.61.22-.14.47-.28.75-.41s.55-.22.82-.26c.54-.09,1.05-.02,1.52.2.48.22.83.58,1.07,1.06.44.88.39,2.03-.15,3.45-.43,1.13-.95,2.22-1.59,3.27-.12.2-.25.45-.4.76l-.11.26s0,.02-.01.04c0,.02-.02.04-.03.06,0,.03-.02.05-.03.06l-.09.2-.1.24s.02-.04.03-.08c0,.03-.03.09-.05.16-.03.07-.05.12-.06.16,0,.02-.02.06-.02.1,0,.04-.01.07-.01.08,0,.02,0,.06,0,.1,0,.04,0,.08,0,.1v.05s.02.03.03.05c.04.09.03.1-.03.01.02.04.05.12.11.24-.03-.05-.03-.05,0-.01.02.02.03.05.04.06l.04.04c.04.08.09.13.14.16.12.08.24.13.36.14.12,0,.25-.03.38-.1.13-.08.24-.15.34-.22.1-.07.21-.18.34-.34.13-.15.21-.26.26-.33s.13-.17.22-.31c.34-.48.79-1.19,1.34-2.14.55-.95.87-1.51.96-1.66Zm-4.46-4.04h.01s0-.02.01-.04v-.04s0,.03-.02.06h0Z"/>
  </g>
  <text class="cls-1" transform="translate(79.61 60.17)"><tspan x="0" y="0">BEAUTY LOUNGE BY KM</tspan></text>
</svg>