<?xml version="1.0" encoding="UTF-8"?>
<svg id="Layer_1" data-name="Layer 1" xmlns="http://www.w3.org/2000/svg" viewBox="0 0 117.85 123.03">
  <defs>
    <style>
      .cls-1, .cls-2 {
        fill: #345355;
      }

      .cls-2 {
        font-family: Poppins-LightItalic, Poppins;
        font-size: 6.37px;
        font-style: italic;
        font-weight: 300;
      }
    </style>
  </defs>
  <g>
    <path class="cls-1" d="m85.08,21.4c-1.4.35-2.7,1.15-4.03,1.75.04.12.08.24.12.37,1.63.02,3.28-.42,4.89-.01,0,.09,0,.17.01.26-1.46.12-2.93.25-4.39.37,0,.08,0,.17,0,.25,2.07.82,4.25.95,6.47.88-1.92.66-3.85.43-5.81.16.73.66,1.43,1.32,2.26,1.77.66.37,1.48.7,2.21.66,2.13-.11,4.1-.85,5.97-1.84-.21-.52-.42-1.04-.65-1.55-1.31-.96-2.6-1.94-4.01-2.71-.84-.46-2.09-.59-3.03-.36Z"/>
    <path class="cls-1" d="m64.8,68.88c-1.19-1.83-2.43-3.63-3.68-5.43-.73-1.05-1.5-2.08-2.25-3.12.51,1.49,1.22,2.85,1.86,4.25.65,1.41,1.24,2.86,1.81,4.2-6.08,1.11-11.21-1.77-16.63-3.46,4.4,2.51,9.51,3.98,12.14,8.92.11-.09.22-.17.33-.26-.59-1.3-1.18-2.6-1.81-4,.39.03.74.01,1.06.08,2.3.52,4.6,1.05,6.89,1.6.87.21,1.28-.09,1.06-.95-.16-.64-.43-1.28-.78-1.83Z"/>
    <path class="cls-1" d="m53.52,28.5c-2.21.45-4.37,1.18-6.54,1.84-.73.22-1.11.83-1.18,1.59-.02.27.06.54.1.81.25-.04.52-.03.74-.13,1.17-.53,2.3-1.14,3.48-1.63,1.86-.77,3.73-1.56,5.82-1.09.81.18,1.61.42,2.42.63.02-.07.05-.15.07-.22-1.52-.92-3.01-2.18-4.92-1.79Z"/>
    <path class="cls-1" d="m45.5,49.21c-.29-.14-.59-.4-.87-.39-.35.01-.69.25-1.04.38.14.34.18.84.43.98.49.27,1.11.52,1.64.47,1.48-.13,2.95-.38,4.4-.65.39-.07.73-.42,1.14-.66-1.59-.38-2.99-.73-4.4-1.04-.71-.16-1.38.33-1.31.91Z"/>
    <path class="cls-1" d="m57.02,35.07c-.3.04-.61.08-.91.12-.05-.07-.11-.14-.16-.2.3-.15.6-.31.9-.46-.06-.09-.12-.18-.18-.27-2.26,1.18-4.57,2.07-7.19,1.25-.2.53-.37.98-.61,1.63.44-.2.67-.3.88-.39.11.21.2.37.29.55.18-.15.31-.25.43-.36.22.24.46.26.68.32.27.08.52.2.79.31.06-.09.15-.22.23-.35.34.19.63.34,1,.55-.02-.33-.03-.51-.04-.76.39.13.71.23,1.1.36.05-.22.08-.4.12-.58.31.01.61.03,1.03.05-.23-.31-.38-.52-.47-.65.76-.29,1.49-.56,2.22-.83-.04-.1-.07-.19-.11-.29Z"/>
    <path class="cls-1" d="m67.22,36.44c-.1,0-.18-.12-.29-.2.16-.42.3-.81.45-1.2-.08-.04-.15-.08-.23-.13-.26.42-.58.81-.75,1.26-.19.49-.17.98.57,1.08.74.1.46.56.27,1.14-.24-.32-.35-.54-.52-.68-.14-.11-.34-.14-.52-.21.01.2.01.4.05.59.06.33.23.66.21.99-.07,1.02.27,1.27,1.25.97.17-.58.31-1.09.47-1.61.3-.98.19-1.88-.94-2Z"/>
    <path class="cls-1" d="m44.47,50.98c.17,1.2.84,1.5,1.61,1.64,1.42.25,2.8-.45,3.59-1.91-1.77.82-3.33,1.99-5.2.27Z"/>
    <path class="cls-1" d="m45.31,45.02c.49-.03.95-.06,1.46-.09-.62-.72-1.12-.68-1.46.09Z"/>
    <path class="cls-1" d="m94.49,31.62c-1.99-.18-3.99-.35-6.15-.54.96.77,1.84,1.3,2.5,2.04.63.71,1.03,1.62,1.54,2.44-.07.04-.15.09-.22.13-.67-.96-1.35-1.91-2.02-2.87-.06.03-.12.07-.17.1.23.39.46.79.83,1.42-.42-.22-.61-.31-.79-.41-.04.03-.08.06-.13.09.8.98,1.59,1.96,2.39,2.95l-.26.24c-.6-.77-1.19-1.54-1.79-2.31-.12.11-.24.22-.36.33l1.59,2.06c-2.05-1.04-3.36-2.77-4.61-4.66.18,2.19.37,4.39.57,6.78-.75-.53-1.3-.91-1.84-1.29-.06.06-.12.11-.17.17,1.69,2.86,4.35,5.25,4.57,9.01-1.76-.85-2.38-2.36-3.02-3.93-1.76.98-2.71,2.52-3.62,4.11.14-1.39.88-2.46,1.83-3.36.52-.49.64-.83.13-1.36-.27-.29-.45-.66-.71-1.06.06,1.64-1.64,2.57-1.44,4.28.17,1.45.04,2.94.04,4.59.94-1.45,1.77-2.73,2.6-4.01l.34.16c-.32,1-.63,1.99-.95,2.99.06.03.13.06.19.09.49-.96.97-1.92,1.59-3.14-.17.89-.29,1.54-.43,2.33.87-.12,1.63-.26,2.39-.31.87-.05,1.74-.03,2.62-.02.68,0,.95.3.72,1-.44,1.38.21,2.49.88,3.75,1.48-4.04,2.31-8.47,2.34-13.25-.02-2.99-.35-5.84-.96-8.55Z"/>
    <path class="cls-1" d="m92.23,49.66c.22-.7-.04-.99-.72-1-.87,0-1.75-.03-2.62.02-.77.05-1.53.19-2.39.31.15-.79.27-1.44.43-2.33-.61,1.21-1.1,2.17-1.59,3.14-.06-.03-.13-.06-.19-.09.32-1,.63-1.99.95-2.99l-.34-.16c-.83,1.28-1.66,2.55-2.6,4.01,0-1.65.14-3.14-.04-4.59-.2-1.71,1.49-2.64,1.44-4.28.27.41.45.78.71,1.06.5.54.38.87-.13,1.36-.95.9-1.69,1.97-1.83,3.36.91-1.58,1.86-3.12,3.62-4.11.64,1.57,1.26,3.08,3.02,3.93-.22-3.76-2.88-6.15-4.57-9.01.06-.06.12-.11.17-.17.54.38,1.09.76,1.84,1.29-.2-2.39-.38-4.58-.57-6.78,1.25,1.9,2.56,3.62,4.61,4.66l-1.59-2.06c.12-.11.24-.22.36-.33.6.77,1.19,1.54,1.79,2.31l.26-.24c-.8-.98-1.59-1.96-2.39-2.95.04-.03.08-.06.13-.09.18.09.36.19.79.41-.37-.63-.6-1.02-.83-1.42.06-.03.12-.07.17-.1.67.96,1.35,1.91,2.02,2.87.07-.04.15-.09.22-.13-.5-.82-.91-1.73-1.54-2.44-.66-.74-1.54-1.27-2.5-2.04,2.16.19,4.16.37,6.15.54-.06-.25-.11-.5-.17-.75-1.18-.64-2.36-1.27-3.55-1.91.07-.05.13-.11.21-.15.82-.34,1.63-.68,2.46-.99-.21-.61-.42-1.21-.66-1.8-1.87,1-3.83,1.74-5.97,1.84-.73.04-1.54-.3-2.21-.66-.82-.45-1.53-1.12-2.26-1.77,1.96.27,3.89.51,5.81-.16-2.22.07-4.4-.05-6.47-.88,0-.08,0-.17,0-.25,1.46-.12,2.93-.25,4.39-.37,0-.09,0-.17-.01-.26-1.61-.41-3.26.04-4.89.01-.04-.12-.08-.24-.12-.37,1.34-.61,2.63-1.41,4.03-1.75.94-.23,2.19-.1,3.03.36,1.41.77,2.71,1.75,4.01,2.71-.2-.44-.4-.88-.62-1.31-.76-.61-1.52-1.22-2.26-1.85-.31-.26-.67-.73-.65-1.09.03-.68.01-1.34-.05-2-.51-.71-1.03-1.4-1.58-2.08,0,.79-.14,1.59-.5,2.42-.62,1.4-1.77,2.17-3.41,2.7.68-1.02,1.23-1.86,1.71-2.58-1.41,1.38-2.9,2.84-4.38,4.3-.11-.09-.21-.18-.32-.27,1.19-3.16,2.82-6.07,5.04-8.65-.01-.01-.02-.02-.04-.04-1.26.92-2.34,2.01-3.12,3.35-.81,1.4-1.51,2.86-2.43,4.28.05-.82.06-1.65.14-2.47.25-2.46.95-4.68,3.27-6.04.26-.15.5-.33.74-.51-.23-.21-.45-.42-.68-.63-.08.16-.2.31-.32.43-.44.4-.94.75-1.42,1.11-.06-.05-.12-.11-.18-.16.22-.56.39-1.16.69-1.67.09-.16.28-.28.48-.38-1.36-1.16-2.81-2.22-4.31-3.18-.66-.16-1.33-.32-2.09-.51.88,1.82,2.17,2.87,3.97,3.33.35.09.96.39.94.53-.14,1.06-.41,2.11-.66,3.26-.82-.77-1.42-1.45-2.13-1.99-1.44-1.07-3.14-1.5-4.87-1.84-1.54-.3-1.54-.31-2.24,1.1-1.12-1.44-2.6-2.3-4.31-2.7-1.05-.24-2.13-.31-3.19-.51-.32-.06-.73-.2-.88-.45-1.26-2.08-3.28-2.62-5.48-2.71-5.58-.25-10.75,1.15-15.53,4.03-1.96,1.18-3.71,2.61-5.25,4.33-2.45,2.75-3.05,6.07-3.17,9.59-.08,2.36-.17,4.72-.39,7.07-.22,2.34-.92,4.51-2.81,6.13-1.4,1.2-2.98,1.55-4.73,1.06-.35-.1-.87-.46-.88-.72-.05-1.07,0-2.15.15-3.21.05-.33.51-.7.87-.88,1.59-.81,2.77-2,3.46-3.65.06-.14.03-.32.05-.63-1.99.61-3.34,1.85-4.55,3.39.2-1.21.39-2.43.59-3.64-.09-.02-.19-.03-.28-.05-.23.99-.45,1.99-.73,3.18-.65-2.58.78-4.32,1.79-6.2-1.44,1.23-2.22,2.79-2.46,4.8-.61-1.06-1.13-1.97-1.66-2.88-.07.2-.13.41-.2.61.48,1.41.95,2.82,1.42,4.22-.06-.01-.21-.04-.39-.08.45.7,1.04,1.3,1.24,2.01.21.74.05,1.58.05,2.38-.06,0-.13.01-.19.02-.17-.38-.34-.77-.53-1.2-.36,1.22-.22,3.01.46,4.56,1.79,4.08,5.26,5.85,9.6,6.55-2.02,2.29-4.27,3.72-7.18,3.67-2.75-.04-4.59-1.1-5.77-2.85.25,1.33.56,2.64.94,3.94,1.58,1.37,3.54,2.11,5.81,2.32.44.04.88.13,1.33.2-.05.25-.05.34-.09.41-.14.25-.29.51-.45.75-1.35,2-2.01,4.06-2.02,6.2.74,1.14,1.55,2.24,2.43,3.3.56-1.56,1.37-2.97,2.6-4.13,1.1-1.04,2.29-1.98,3.47-2.94,2.05-1.65,3.88-3.48,4.72-6.06.32-.98.48-2.01.71-2.97.21,3.78-1.13,6.91-4.16,9.3-1.23.97-2.45,1.99-3.55,3.11-1.39,1.42-2.37,2.99-2.96,4.63.65.74,1.33,1.46,2.05,2.15.62.59,1.25,1.16,1.89,1.7,1.74-4.89,6.82-7.71,12.03-5.17.59.29,1.26.47,1.92.6,3.39.67,6.29-1.15,7.09-4.51.22-.93.3-1.9.34-2.86.03-.64.24-1,.81-1.29,1.22-.62,2.43-1.28,3.6-1.99,2.58-1.58,4.95-3.36,5.78-6.49.27-1.01.46-2.05.71-3.07.09-.37.23-.73.35-1.1.12,0,.24-.01.36-.02.11.42.31.84.32,1.26.03,1.71-.09,3.43,0,5.14.06,1.18.4,2.3,1.65,2.9.22.11.36.56.39.87.38,3.86.64,7.73,1.11,11.58.4,3.31,1.04,6.58,3.08,9.38.02.03,0,.11-.03.37-2.49,1.18-4.97,2.07-7.43,2.68,9.71-1.99,18.57-7.69,24.25-16.08-.94.17-1.88.18-2.84-.3-.71-.35-1.3-.85-1.19-1.93.9.69,1.69,1.3,2.48,1.91.04-.05.07-.1.11-.15-1-1.08-2.01-2.17-3.01-3.25.05-.06.1-.12.15-.17,1.23.61,2.46,1.23,3.69,1.84.06-.11.12-.23.19-.34-1.29-.8-2.57-1.6-3.94-2.45.67.03,1.3.06,1.92.09.01-.1.02-.2.03-.3-.75-.15-1.5-.3-2.32-.46,2.14-1.01,4.44-.44,5.6,1.45.29.47.52.97.73,1.49.96-1.71,1.8-3.52,2.5-5.41-.67-1.26-1.32-2.37-.88-3.75Zm-12.74-39.86c-.53-.28-1.07-.56-1.6-.84.05-.09.09-.18.14-.27.54.28,1.07.57,1.61.85-.05.08-.1.17-.15.25ZM27.92,30.4c-.67.68-1.33,1.35-2,2.03-.05-.06-.1-.12-.16-.18.67-.66,1.34-1.33,2.02-1.99.05.05.1.09.14.14Zm-.83-.5c.05.05.11.11.16.16-.68.66-1.37,1.33-2.05,1.99-.08-.08-.15-.15-.23-.23.71-.64,1.41-1.28,2.12-1.92Zm4.71,12.29c-1.76.77-3.68.32-5.23-1.2,4.49,1.19,6.24.48,8.73-3.41-.36,2.14-1.49,3.73-3.5,4.61Zm53.25,5.98c.06.03.12.05.18.08-.32.72-.64,1.45-.97,2.17-.07-.04-.15-.08-.22-.12.34-.71.67-1.42,1.01-2.14Zm-2.65-3.23c-.06-.05-.12-.09-.18-.14.46-.6.92-1.2,1.37-1.8.08.07.16.14.24.21l-1.44,1.73Zm-.17,8.68c-.1.06-.2.12-.3.19-.6-.83-1.2-1.65-1.8-2.48l-.22.14c.48.96.96,1.92,1.45,2.9-1.59.33-3.7-.67-4.44-2.01-.86-1.56-.77-3.26-.72-4.95.01-.56.43-.45.77-.37,3.02.71,4.82,1.78,5.39,5.33-.69-1.02-1.41-2.09-2.13-3.16-.07.04-.13.08-.2.12.74,1.43,1.47,2.85,2.21,4.28Zm.08-9.62c-.08-.07-.16-.14-.24-.2.62-.75,1.24-1.5,1.86-2.24l.24.19c-.62.75-1.24,1.5-1.86,2.25Zm4.08-9.96c.08.93.15,1.86.23,2.8l-.21.02-.31-2.79c.1-.01.2-.02.29-.04Zm-5.51-4.3c-.44-1.12-.62-2.35-.91-3.52.07-.03.14-.05.2-.08l1.96,3.44c.12-.06.24-.12.35-.18-.67-1.45-1.33-2.89-2.01-4.36,3.79,1.2,6.25,6.86,4.95,11.31-3.59-.27-5.45-2.09-5.54-7.19.71,1.6,1.3,3.02,2.77,3.94-.64-1.18-1.34-2.22-1.78-3.35Zm.21,13.78c.07.34.08.68.06,1.05-.6-1.91-1.34-3.69-3.19-4.74,1.38,1.45,2.19,3.16,2.48,5.14-1.39-1.91-2.48-4.03-4.37-5.55.73,1.11,1.47,2.21,2.17,3.34.18.28.68.55.17,1.03-.05.05.46.7.73,1.11-2.41-.72-4.37-3.28-4.37-5.66,0-.47.08-.85.68-.72,2.58.58,5.06,2.23,5.62,5Zm-9.43-31.19c.06-.22.49-.53.7-.5,1.87.26,3.61.92,5.11,2.1,1.71,1.35,1.94,3.12,1.41,5.1-.83-1.11-1.65-2.21-2.47-3.32-.09.05-.19.11-.28.16,1.18,2.05,2.95,3.88,2.38,6.63-1.07-1.39-2.13-2.78-3.2-4.17l-.14.06c.25.53.47,1.08.76,1.59.32.55.7,1.07.93,1.73-1.21-1.13-2.43-2.25-3.64-3.38-.06.04-.11.09-.17.13.69.83,1.37,1.65,1.99,2.39-1.31-.19-2.96-1.79-3.47-3.52-.49-1.67-.37-3.35.08-5Zm-.98,8.83c2.83-.44,4.46.14,7.36,2.59-1.05-.08-1.87-.14-2.68-.22-.81-.08-1.61-.19-2.44-.17,1.35.74,2.89.68,4.39,1.16-.58.17-1.14.4-1.73.5-.62.1-1.27.08-1.9.2,1.05.68,2.17.26,3.3.13-1.93,3.52-8.8,2.67-11.74-1.47,1.58-1.38,3.35-2.39,5.45-2.71Zm-9.08-4.93c.89-1.34,2.21-1.82,3.77-1.75,1.43.06,2.66.5,3.56,1.97-1.1-.12-2.05-.21-2.99-.31,0,.05-.01.1-.02.15.67.45,1.35.89,2.15,1.42-.65.04-1.15.08-1.65.11v.34c.92.06,1.84.11,2.96.18-.53.18-.92.38-1.32.43-2.3.27-4.4-.3-6.23-1.72-.19-.15-.34-.66-.24-.82Zm-2.93-3.45c-1.97,3.35-6.5,3.59-11.03,2.28q6.12.25,11.03-2.28Zm-22.24,19.62c1,.24,1.73.42,2.45.6.57.14,1.12.38,1.69.43,1.49.14,1.94,1.21,2.27,2.41.05.17.04.43-.06.57-.51.76-2.51,1.46-3.41,1.18-.25-.08-.55-.25-.68-.47-.63-1.08-1.23-2.18-1.81-3.29-.18-.35-.25-.76-.46-1.43Zm32.06,10.08c-.38-.28-.68-.51-.99-.74.75,3.36.31,6.67.44,9.96-.1.05-.21.09-.31.14-.23-.31-.59-.6-.66-.95-.44-2.1-.54-4.22-.14-6.34.06-.31.36-.56.64-.99-1.2-.26-1.77-1.18-2-2.39-.1.02-.19.04-.29.05-.25.79-.54,1.56-.74,2.36-.25,1.02-.41,2.06-.65,3.08-.55,2.42-1.87,4.36-4,5.62-2.66,1.57-5.34,3.12-8.12,4.47-2.69,1.31-5.06.48-6.61-2.05-1.67-2.74-3.37-5.46-4.94-8.26-1.09-1.94-1.6-4.06-1.43-6.32.06-.78.56-1.15,1.35-1.09.27.02.57-.21.93-.36.05.04.19.16.3.26.61-.57,1.18-1.1,1.97-1.83-.1,1.31-.15,2.44-.28,3.57-.08.69-.29,1.37-.45,2.05-.48,2.01.07,2.94,2.27,3.46-.23-.24-.43-.53-.69-.72-1.46-1.08-1.51-1.18-.95-2.91.66-2.06,1.04-4.21.42-6.28-.43-1.44-1.19-2.89-2.16-4.03-1.12-1.31-2.86-1.42-4.54-1.29-.11,0-.22.03-.48.07.05-.96,0-1.87.17-2.73.37-1.77,2.07-2.7,4.27-2.4.51.07.84.06.98-.51.77-3.09,3.09-4.54,5.87-5.44.99-.32,2.04-.52,3.07-.68,1.87-.28,3.33.51,4.38,1.99,1.65,2.3,3.63,4.24,5.91,5.92,1.2.88,1.78,2.14,1.8,3.63.02,1.11-.02,2.22,0,3.33,0,.37.04.77.14,1.12.28.89.91,1.13,1.69.62.41-.27.74-.66,1.12-.97.43-.35.84-.75,1.32-.99,1.23-.63,2.35-.19,2.83,1.09,1.04,2.79.04,5.16-1.46,7.48Zm3.52-5.84c-.21.04-.68-.2-.69-.34-.14-1.44-.34-2.9-.28-4.34.08-1.76,1.43-2.73,2.75-3.62,1.03-.69,2.12-1.3,3.18-1.95.06.06.13.12.19.18-1.3,1.3-2.59,2.59-3.91,3.91,2.07-1.08,3.63-2.72,5.07-4.53-.45,1.91-1.2,3.63-2.81,4.86,1.97-.63,2.65-2.33,3.34-4.09,1.1,2.37-.06,6.48-2.17,8.03-1.4,1.03-2.98,1.59-4.66,1.88Zm.87,22.01c1.21-2.45,4.31-5.1,7.88-3.3-2.02.16-3.96.35-5.41,1.58,1.85-.41,3.81-.84,5.77-1.28.02.08.04.17.07.25-.6.2-1.2.39-1.8.6-.57.21-1.14.44-1.71.66l.11.32c1.05-.27,2.09-.53,3.4-.86-.5.46-.8.73-1.09,1l.16.19c.42-.27.83-.54,1.27-.83-2.54,3.69-4.44,4-8.64,1.66Zm9.92,5.78c-.94.85-2.02,1.53-3.05,2.29-1.92-2.91-1.38-5.78,1.46-7.84-.34,1.02-.63,1.91-.93,2.8.07.03.14.05.22.08.69-1.38,1.37-2.77,2.06-4.15.1.03.19.06.29.09-.05.86-.1,1.71-.15,2.57.07.02.15.04.22.07.24-.78.48-1.56.73-2.39,1.31,2.27,1,4.82-.84,6.49Zm8.82-14.41c-.28,2.51-2.16,4.32-4.91,4.66-.66.08-1.33.16-2.24.27,1.97-1.08,4.07-1.55,5.52-3.38-1.86.85-3.56,1.64-5.26,2.42-.04-.07-.08-.14-.12-.2.88-.69,1.75-1.39,2.63-2.08-1.63.32-2.6,1.54-3.7,2.71.03-2.29,1.74-4.39,4.03-4.85,1.13-.23,2.32-.19,3.48-.26.5-.03.63.21.58.71Z"/>
    <path class="cls-1" d="m84.68,9.38c-.13-.11-.26-.22-.39-.33-.09-.07-.18-.15-.27-.23-.08-.06-.16-.12-.23-.18-.16-.13-.33-.26-.5-.39-.13-.1-.25-.2-.38-.29-.37-.28-.75-.55-1.14-.82-.93-.65-1.9-1.27-2.89-1.83-.95-.55-1.94-1.05-2.94-1.51-.76-.35-1.54-.69-2.33-.99-3.88-1.54-7.82-2.41-11.71-2.69C39.55-1.54,18.69,16.24,18.8,40.17c0,1.9.12,3.76.37,5.58.22,1.59.52,3.14.92,4.65,1.15,4.4,3.03,8.47,5.5,12.09.65.96,1.34,1.89,2.06,2.78.27.33.54.66.82.98,1.22,1.41,2.53,2.73,3.93,3.95,10.77,9.45,26.42,13.19,41.23,7.34,15.09-5.74,25.6-21.22,25.44-37.37.12-11.8-5.47-23.24-14.37-30.79Zm5.93,49.45c-.5.89-1.03,1.75-1.6,2.58-5.68,8.39-14.54,14.09-24.25,16.08-10.72,2.2-22.46-.12-32.08-8.28-.64-.54-1.27-1.1-1.89-1.7-.72-.69-1.4-1.42-2.05-2.15-.28-.31-.56-.63-.82-.95-.88-1.06-1.69-2.17-2.43-3.3-2.02-3.08-3.55-6.42-4.58-9.88-.38-1.3-.69-2.61-.94-3.94-1.19-6.4-.75-13.06,1.3-19.27.07-.2.13-.41.2-.61,1.88-5.39,4.99-10.41,9.33-14.57C43.63.51,60.89-.55,74.35,6.15c.81.4,1.61.84,2.39,1.3.4.23.79.47,1.18.72,1.51.96,2.95,2.02,4.31,3.18.26.22.51.44.76.67.23.21.46.42.68.63.47.45.94.91,1.39,1.38.01.01.02.02.04.04.64.67,1.26,1.37,1.85,2.09.55.67,1.08,1.36,1.58,2.08,1.1,1.55,2.1,3.2,2.96,4.94.21.43.42.87.62,1.31.23.51.44,1.02.65,1.55.23.59.45,1.19.66,1.8.34.99.63,2.01.89,3.05.06.25.12.5.17.75.61,2.71.95,5.56.96,8.55-.02,4.77-.86,9.21-2.34,13.25-.69,1.9-1.53,3.7-2.5,5.41Z"/>
  </g>
  <g>
    <path class="cls-1" d="m26.93,80.94c.1.09.19.19.27.31.08.12.15.23.2.34.06.11.1.24.14.4.04.16.07.29.09.39.02.11.04.25.05.44s.02.33.02.42,0,.24-.02.45c-.01.21-.02.35-.03.42s-.02.21-.04.42-.03.34-.03.38c-.12,1.41-.38,2.83-.8,4.24-.42,1.41-.98,3.03-1.68,4.86-.47,1.23-1.2,2.97-2.17,5.22.1.29.13.6.07.91-.03.15-.1.25-.22.3s-.24.04-.36-.02c-.08.18-.19.43-.33.76s-.27.63-.38.9c-.11.27-.22.53-.32.77-.55,1.36-.97,2.56-1.26,3.61-.29,1.05-.43,2.09-.42,3.14,0,.26-.06.49-.2.69-.14.2-.32.33-.53.41-.21.07-.43.1-.66.09-.23-.01-.43-.1-.62-.25s-.32-.35-.39-.6c-.13-.49-.2-1-.22-1.53-.01-.53.03-1.08.14-1.64.1-.56.22-1.07.34-1.5.12-.44.28-.95.47-1.54.42-1.26,1.02-2.8,1.8-4.63-.14,0-.35,0-.64-.02-1.53-.09-3.17-.16-4.93-.2-.31,0-.72-.01-1.24-.01h-1.24c-2.79,3.87-4.8,6.64-6.04,8.3-.21.28-.53.72-.96,1.32-.43.6-.82,1.12-1.16,1.57-.34.45-.68.87-1.02,1.26-.25.28-.55.48-.89.6-.34.11-.66.12-.95,0-.17,0-.31-.04-.44-.13-.13-.09-.21-.22-.24-.39-.05-.26-.08-.51-.08-.76,0-.25.01-.49.06-.73.05-.24.1-.47.17-.69.07-.22.16-.44.27-.68.11-.23.22-.45.33-.64s.24-.41.39-.63c.15-.23.29-.43.41-.61.12-.18.26-.39.43-.62.16-.23.3-.43.41-.61.87-1.33,1.52-2.4,1.98-3.22.14-.26.24-.44.29-.56.06-.12.12-.29.2-.52.08-.23.11-.44.09-.63s-.08-.38-.19-.57c-.24-.45-.63-.72-1.16-.81-.42.02-.68.03-.77.02-.19,0-.33-.08-.43-.24-.1-.16-.12-.33-.07-.5.05-.17.17-.28.37-.31.45-.13.98-.24,1.59-.31s1.07-.12,1.38-.14c.31-.01.9-.02,1.76-.03.86,0,1.34-.01,1.43-.01.44,0,1.09-.01,1.96-.01.19-.26.47-.66.85-1.17.38-.52.66-.91.86-1.16,2.2-2.99,4.08-5.46,5.65-7.41.11-.14.42-.52.91-1.14.5-.62.86-1.06,1.07-1.32.21-.26.53-.63.94-1.11.41-.48.8-.9,1.15-1.26.36-.36.72-.7,1.09-1.03.01-.03.04-.07.08-.12.22-.26.46-.49.73-.69.26-.2.55-.37.86-.5.31-.14.63-.18.95-.14s.62.19.89.44Zm-19.95,22.02c1.05-1.43,2.05-2.8,2.98-4.11h-.87c-.58,0-.86,0-.86,0-.62.01-1.53.07-2.75.17.33.42.53.89.6,1.43.07.54,0,1.09-.23,1.67-.1.25-.23.52-.36.8s-.26.53-.36.73c-.1.2-.25.47-.44.8s-.32.57-.4.7c-.08.13-.24.4-.47.78-.23.39-.37.63-.42.72-.06.09-.24.39-.55.89-.31.51-.54.9-.69,1.19.15.03.26.1.32.21.02-.03.05-.07.1-.13s.08-.1.11-.13c.15-.19.66-.85,1.53-1.99.85-1.13,1.78-2.37,2.78-3.73Zm18.48-18.6c.01-.06.04-.17.07-.33.03-.16.06-.29.08-.39.02-.11.04-.23.06-.38s.03-.28.03-.4c0-.12-.02-.23-.06-.33-.01-.05-.02-.09-.03-.14,0-.04,0-.07,0-.08,0-.01,0-.02,0-.03,0,0-.01,0-.02,0,0,0-.03,0-.08.02-.05,0-.1.01-.16.02-.19.01-.53.2-1.02.55-.27.34-.68.81-1.22,1.41-.54.6-.92,1.03-1.13,1.29-1.28,1.52-2.43,2.92-3.43,4.2-1.58,2.01-3.52,4.61-5.83,7.81.67,0,1.67.03,3,.07,1.81.06,3.36.15,4.65.26.48-1.1.74-1.66.76-1.7,1.26-2.65,2.36-5.33,3.3-8.05.4-1.18.74-2.44,1.03-3.79Z"/>
    <path class="cls-1" d="m30.52,92.85c-.27.64-.77,1.76-1.49,3.36-.72,1.59-1.31,2.98-1.76,4.17-.45,1.19-.8,2.36-1.06,3.51-.42,1.83-.24,2.78.52,2.86.11.01.23,0,.36-.05s.25-.1.35-.16c.1-.06.22-.15.36-.28.14-.13.25-.23.31-.3.07-.07.17-.18.3-.33.14-.15.21-.23.23-.26.51-.54,1.37-1.58,2.58-3.13.08-.1.17-.13.3-.09.12.03.21.1.25.2.05.1.05.2-.01.31-.06.08-.25.33-.57.75-.32.43-.54.72-.66.87-.12.15-.31.39-.57.71-.26.32-.5.6-.71.83-.21.23-.43.45-.66.68-.24.23-.45.41-.61.55-.16.13-.38.26-.66.39-.27.12-.54.17-.78.15-.32-.03-.6-.14-.84-.33-.24-.18-.43-.42-.56-.7-.14-.28-.24-.57-.3-.85-.07-.29-.11-.58-.12-.89-.02-.59.02-1.26.13-2.01.11-.75.2-1.32.29-1.69.08-.37.24-1.03.47-1.96.99-4.06,2.62-8.39,4.89-12.98.12-.25.31-.43.55-.53.24-.1.49-.13.73-.08.24.05.47.15.69.29s.37.33.44.57c.08.24.07.49-.02.75-.28.73-.71,1.76-1.27,3.08s-.93,2.19-1.1,2.59Z"/>
    <path class="cls-1" d="m57.03,108.15c.3-.05.56.02.79.22.22.19.33.43.32.71-.01.28-.16.5-.44.67-.37.21-.76.35-1.16.41-.41.06-.8.06-1.16,0-.36-.06-.75-.18-1.16-.36-.41-.18-.78-.37-1.1-.58s-.68-.46-1.05-.76c-.38-.3-.69-.57-.94-.8-.25-.22-.52-.49-.84-.8-.91-.89-2.03-2.11-3.37-3.68-.02-.02-.05-.05-.09-.09-.04-.04-.07-.07-.09-.09-1.16,2.91-2.12,5.18-2.88,6.82-.11.23-.28.35-.51.35-.23,0-.43-.08-.6-.26-.17-.18-.22-.39-.16-.62.57-2.17,1.37-4.89,2.4-8.16-.29-.25-.5-.44-.63-.57-.13-.15-.18-.3-.16-.47s.1-.31.25-.42c.15-.11.31-.15.49-.1.07.02.23.08.49.18.04-.14.11-.35.19-.63.09-.28.15-.5.2-.64,1.03-3.22,1.62-5.03,1.76-5.44.02-.07.08-.25.18-.56.1-.3.17-.5.2-.59s.09-.28.19-.55c.09-.27.16-.47.21-.6.04-.12.11-.31.2-.55.09-.24.17-.44.23-.59.06-.15.14-.33.22-.54.09-.2.17-.4.26-.57.09-.18.18-.35.27-.53.17-.33.41-.53.71-.61.3-.08.59-.06.85.07.27.12.48.33.65.62s.22.59.15.92c-.07.33-.15.67-.24,1.01-.09.34-.21.72-.36,1.13-.15.42-.26.73-.34.96-.08.22-.22.59-.42,1.11s-.33.84-.37.97c-.45,1.19-1.13,2.98-2.05,5.36-.07.17-.17.43-.3.76s-.23.59-.29.76c.01.01.03.03.06.05s.04.03.06.04c.08.07.21.18.37.32.16.15.29.25.37.32.67.09,1.3-.01,1.87-.3.49-.25.95-.61,1.39-1.09s.8-.93,1.07-1.37c.27-.44.55-.96.85-1.55.55-1.11.98-2.26,1.28-3.45.3-1.19.44-2.43.4-3.74-.03-1.3-.27-2.5-.72-3.59-.43-1.03-1.07-1.89-1.93-2.58-.86-.7-1.8-1.12-2.83-1.27-1.03-.15-2.07.04-3.13.57-1.23.67-2.19,1.66-2.86,2.97-.14.27-.25.56-.34.87s-.14.63-.15.97c0,.33.04.64.13.91.09.27.26.51.51.7.25.19.57.3.97.33.22.01.39.1.52.25.12.15.17.33.14.52-.03.2-.14.36-.32.48-.61.39-1.22.54-1.83.45-.61-.09-1.17-.36-1.68-.81-.51-.45-.86-.99-1.06-1.61-.28-.92-.27-1.9.03-2.93.31-1.03.79-1.98,1.44-2.85,1.14-1.5,2.59-2.5,4.33-3s3.49-.36,5.22.41c1.1.51,2.04,1.24,2.83,2.21.78.97,1.36,2.02,1.73,3.16.37,1.14.55,2.33.56,3.57.01,1.92-.32,3.83-1,5.74-.68,1.91-1.64,3.58-2.87,5.02-1,1.17-2.11,1.87-3.31,2.1.08.07.28.25.61.54s.59.51.76.67c1.41,1.3,2.57,2.27,3.48,2.89.08.06.23.16.43.31.2.15.37.28.52.37.15.09.31.19.51.3.19.11.39.18.57.22s.36.04.53.02Z"/>
    <path class="cls-1" d="m65.15,102.34c.12-.13.25-.14.41-.02.16.12.18.25.09.4-.67.96-1.31,1.8-1.91,2.52-.6.72-1.25,1.34-1.93,1.86-.63.48-1.2.73-1.7.75-.62.03-1.26-.24-1.9-.82-.73-.66-1.09-1.6-1.06-2.83.03-1.1.37-2.16,1.02-3.2.53-.85,1.23-1.58,2.11-2.17.08-.06.19-.14.33-.26s.25-.21.32-.26c.06-.03.15-.09.27-.16.13-.07.22-.12.28-.17.46-.29.89-.47,1.27-.53.67-.1,1.2,0,1.58.33h.02s.01.01.02.02c0,.01.02.03.03.05s.02.03.03.04c.11.11.17.17.18.19.12.22.17.5.15.82,0,.16-.01.3-.04.42,0,0,0,.02-.01.03,0,.01-.01.02-.01.03-.02.11-.03.17-.03.18-.01.05-.04.12-.08.21s-.07.15-.08.19l-.03.06c-.19.41-.39.73-.6.98-.44.49-.9.83-1.38,1.01-.26.1-.54.13-.84.08-.3-.05-.55-.17-.74-.37,0,0,0,.02-.01.03-.23.51-.38.85-.45,1.01h0c-.06.13-.09.23-.12.29-.03.08-.08.25-.17.51-.03.08-.07.2-.13.36s-.11.3-.15.43-.07.25-.1.37c0,.06-.02.14-.05.24s-.04.18-.06.24c-.02.08-.03.17-.03.27.02.21.04.35.05.44s.05.2.11.33c.06.13.15.23.26.3.53.35,1.32.01,2.35-1,.39-.39.93-.99,1.61-1.81.68-.82,1.06-1.28,1.15-1.38Zm-3.4-2.52c-.11.16-.23.39-.36.71,0,.04-.01.11-.01.21,0-.02,0-.02.01.01.01.07.02.11.02.11,0,.02,0,.05.02.07.08.15.21.24.39.27.17.02.35-.02.54-.11.19-.09.39-.24.61-.44.42-.38.71-.78.87-1.19.08-.19.12-.37.15-.54.01-.45-.18-.66-.57-.63-.08,0-.15.02-.23.05-.08.02-.16.06-.23.11-.08.05-.14.1-.2.14s-.13.1-.21.19c-.08.08-.14.15-.18.19-.04.05-.1.12-.18.23-.08.11-.13.18-.16.21-.02.03-.07.11-.15.22-.08.11-.12.17-.13.19Z"/>
    <path class="cls-1" d="m76.08,102.34c.1-.14.23-.21.37-.2s.26.07.35.21c.09.14.09.28,0,.42-.14.23-.36.61-.65,1.15s-.56,1-.8,1.39c-.24.39-.49.75-.75,1.08-.29.37-.58.66-.87.89-.29.23-.62.36-.98.38-.29.02-.59-.02-.91-.12-.32-.1-.57-.25-.77-.45-.26-.25-.44-.6-.54-1.06,0-.03-.02-.12-.04-.25l-.03-.2s-.01-.07-.02-.13c0-.06,0-.1,0-.13-.01-.22,0-.44.03-.67.12-.92.41-1.9.85-2.95.06-.15.16-.35.29-.62.13-.27.21-.45.25-.55.04-.1.07-.17.07-.19.02-.04.06-.14.1-.29.08-.22.14-.39.18-.5.01-.05.04-.15.07-.29l.04-.19s0,.04-.01.08h0c.02-.07.03-.13.04-.17h-.01s-.01,0-.01.01v.06-.02s-.01.02-.02.03v-.02s.01-.02.01-.03c-.01-.04-.02-.07-.02-.08,0,0-.01-.02-.02-.03,0-.01-.01-.02-.02-.03l-.09-.09s-.05-.03-.1-.06c-.06-.03-.1-.07-.13-.09-.02.01-.07.03-.15.05s-.13.03-.16.04c-.27.1-.6.33-.99.69-.58.53-1.28,1.39-2.12,2.58-1.37,1.95-2.39,3.65-3.05,5.07-.02.04-.06.08-.11.1,0,.02-.02.05-.04.09s-.03.07-.05.09c-.11.23-.28.35-.51.35s-.43-.08-.59-.27c-.17-.18-.22-.39-.16-.62.73-2.79,1.76-6.29,3.11-10.48.18-.55.44-1.39.77-2.51.33-1.12.61-2.02.83-2.72s.51-1.51.87-2.44c.36-.94.74-1.77,1.12-2.51.13-.26.31-.45.54-.56.23-.11.46-.13.69-.08.23.06.44.15.64.3s.34.34.44.58c.1.25.12.5.06.76-.07.33-.15.67-.25,1.01-.1.34-.22.71-.35,1.11s-.25.72-.34.96c-.09.24-.23.6-.42,1.1s-.31.82-.37.98c-.54,1.43-1.18,3.12-1.92,5.04-.75,1.95-1.4,3.6-1.95,4.95.45-.67.77-1.14.97-1.4.21-.28.36-.48.44-.6.09-.12.24-.32.46-.6s.39-.49.53-.64.32-.33.54-.55c.22-.22.43-.39.61-.5.18-.12.39-.23.62-.34.23-.11.46-.18.68-.22.45-.08.87-.02,1.27.17s.69.48.89.88c.37.73.33,1.69-.12,2.87-.35.94-.79,1.84-1.32,2.72-.1.17-.21.38-.33.63l-.09.22s0,.02-.01.03-.01.03-.02.05c0,.02-.01.04-.02.05l-.07.17-.08.2s.01-.04.02-.06c0,.03-.02.07-.04.13-.02.06-.04.1-.05.13,0,.02-.01.05-.02.08,0,.04-.01.06-.01.06,0,.02,0,.05,0,.08,0,.04,0,.06,0,.08v.04s.01.02.02.04h-.02s.1.21.1.21c.03.06.02.05-.01-.01.01.02.02.04.03.05l.03.03c.03.06.07.11.11.14.1.07.2.11.3.11.1,0,.21-.02.32-.08.11-.06.2-.12.29-.18.08-.06.18-.15.28-.28s.18-.22.22-.28.1-.14.19-.26c.28-.4.66-.99,1.11-1.78.46-.79.72-1.25.8-1.38Zm-3.7-3.36h0s0-.02.01-.03v-.03s0,.02-.02.05h.01Z"/>
    <path class="cls-1" d="m93.7,102.34c.1-.14.23-.21.37-.2s.26.07.35.21c.09.14.09.28,0,.42-.14.23-.36.61-.65,1.15-.3.54-.56,1-.8,1.39-.24.39-.49.75-.75,1.08-.29.37-.58.66-.87.89-.29.23-.62.36-.98.38-.29.02-.59-.02-.91-.12-.32-.1-.57-.25-.77-.45-.26-.25-.44-.6-.54-1.06,0-.03-.02-.12-.04-.25l-.03-.2s-.01-.07-.02-.13c0-.06,0-.1,0-.13-.01-.22,0-.44.03-.67.12-.89.41-1.87.86-2.95.06-.15.16-.37.29-.66s.21-.46.24-.52c.03-.07.05-.14.07-.2.05-.1.09-.2.11-.29.04-.11.1-.28.17-.5.02-.06.05-.16.07-.28l.04-.19s0,.04-.01.08v.06s.02-.09.05-.24h-.02s0,.01,0,.01c0,0,0,.01-.01.02v.04-.02s-.01.03-.01.03v-.04s-.01-.05-.01-.09l-.05-.05s-.03-.02-.05-.04c-.02-.02-.03-.03-.04-.05-.01,0-.05-.03-.1-.06-.06-.03-.1-.07-.12-.09-.02.01-.07.03-.15.04-.08.01-.13.02-.16.03-.26.1-.59.33-.98.69-.58.53-1.29,1.4-2.13,2.59-.67.96-1.26,1.86-1.78,2.7-.02.03-.04.09-.07.17-.03.08-.05.13-.07.17-.33.76-.69,1.42-1.1,2.01l-.03.03c-.33.44-.72.59-1.2.46-.22-.06-.42-.19-.58-.4-.17-.2-.24-.42-.21-.64.08-.78.3-1.61.66-2.49.04-.11.11-.27.2-.47.09-.2.15-.35.18-.42-.06.13-.06.13-.01.01.04-.11.07-.17.07-.19.01-.03.03-.08.06-.15.03-.06.05-.11.06-.15.03-.08.11-.28.23-.6.03-.08.07-.2.14-.34s.1-.24.11-.27c-.03.08-.05.12-.05.12l.08-.2c.22-.55.42-1,.59-1.36,0-.01.02-.06.05-.12l.08-.16s0,.02-.02.05c0-.02.03-.08.06-.17.03-.09.07-.16.09-.21.02-.04.04-.08.05-.12,0-.03.02-.07.03-.11s.02-.08.03-.1l.08-.24s0,.03-.01.05c.03-.09.04-.16.03-.2h0s-.01-.07-.02-.07c0,.03,0,.03,0,.02l-.05-.08c-.1-.1-.16-.16-.18-.17-.15-.08-.31-.1-.48-.06-.17.04-.34.11-.51.22-.18.11-.35.24-.51.39-.16.15-.32.3-.46.46-.14.16-.27.29-.37.41-.02.03-.04.05-.06.07s-.03.04-.05.05c-.89,1.01-1.85,2.34-2.9,4.01-.47.76-.79,1.29-.97,1.59-.19.45-.3.72-.35.81-.15.29-.28.53-.4.73-.1.16-.21.29-.35.39l-.05.03c-.12.1-.27.14-.45.11-.18-.03-.29-.13-.32-.31,0-.02-.01-.06-.01-.1-.02-.02-.03-.04-.03-.05-.03-.15-.04-.28-.02-.41.06-.46.1-.8.15-1.02.06-.3.16-.74.3-1.29s.24-.96.29-1.2c.17-.78.39-1.73.69-2.83.13-.5.31-1,.54-1.5.26-.58.48-.96.68-1.12.39-.34.81-.42,1.25-.23s.69.54.73,1.05c0,.1,0,.21-.02.34s-.04.23-.06.3-.05.19-.1.37c-.05.18-.08.28-.09.3-.12.42-.31.9-.55,1.44l-.12.28h.01c.83-1.26,1.64-2.27,2.43-3.04.55-.54,1.04-.88,1.47-1.01.25-.08.53-.1.85-.05.31.05.57.16.76.34.26.24.47.54.62.88.15.34.25.71.28,1.09.03.38.04.75,0,1.11s-.09.72-.17,1.09c.4-.59.65-.95.74-1.07.21-.28.35-.48.44-.6.09-.12.24-.32.46-.6s.4-.49.53-.64c.13-.15.31-.33.54-.55.23-.22.43-.39.61-.5.18-.12.39-.23.62-.34.23-.11.46-.18.68-.22.45-.08.87-.02,1.27.17.4.19.69.48.89.88.37.73.33,1.69-.13,2.87-.35.94-.79,1.84-1.32,2.72-.1.17-.21.38-.33.63l-.09.22s0,.03-.02.06c-.01.03-.03.06-.03.07l-.07.17-.08.2s.01-.04.02-.06c-.01.03-.03.07-.05.13-.02.06-.04.1-.04.13,0,.02-.01.05-.02.08,0,.04-.01.06-.01.06,0,.02,0,.05,0,.08,0,.04,0,.06,0,.08v.04s.01.02.02.04h-.02s.1.21.1.21c.03.06.02.05-.01-.01.01.02.02.04.03.05l.03.03c.03.06.07.11.11.14.1.07.2.11.3.11s.21-.02.32-.08c.11-.06.2-.12.29-.18.08-.06.18-.15.28-.28.1-.13.18-.22.22-.28.04-.06.1-.14.19-.26.28-.4.65-.99,1.11-1.78.46-.79.72-1.25.8-1.38Zm-3.7-3.36h0s0-.02.01-.03v-.03s0,.02-.02.05h.01Z"/>
    <path class="cls-1" d="m106.19,102.37c.13-.16.28-.17.44-.03.16.14.2.29.11.47-.29.55-.85,1.44-1.67,2.66-.53.78-1.01,1.34-1.44,1.67-.44.35-.95.53-1.52.51-.57-.01-1.06-.22-1.47-.62-.32-.31-.57-.74-.76-1.3-.1-.31-.17-.62-.2-.91v-.05c-.03-.15-.04-.25-.05-.3v-.26s-.03.06-.05.1c-.02.05-.04.08-.05.1-.42.73-.79,1.32-1.09,1.75-.17.25-.3.43-.38.53s-.21.24-.38.41c-.17.17-.35.29-.52.38-.46.2-.9.25-1.34.15s-.84-.31-1.21-.63c-.03-.02-.04-.03-.04-.04l.07.05s-.06-.05-.11-.09c-.05-.04-.1-.07-.12-.1-.08-.07-.16-.16-.24-.28-.03-.04-.07-.1-.12-.19-.05-.08-.07-.13-.09-.15-.24-.4-.39-.74-.45-1.02-.03-.16-.06-.32-.06-.48h0c0-.07,0-.2-.02-.38s-.02-.31-.02-.4c.06-.65.13-1.11.23-1.38.28-.85.68-1.64,1.19-2.38.52-.76,1.07-1.37,1.66-1.85.59-.48,1.27-.81,2.05-1,.15-.03.31-.03.5,0,.03,0,.14.02.33.04.18.02.32.05.41.07.46.11.85.31,1.16.59.04.03.08.07.11.12.04.05.07.1.11.16.04.06.07.11.1.14.08-.11.2-.28.36-.5.01-.03.1-.11.27-.25l.1-.09s-.03.02-.07.05c.11-.09.19-.15.24-.18.13-.07.28-.14.46-.2.37-.11.71-.05,1,.19.29.24.45.55.48.93,0,.08,0,.19-.03.35v.06h-.01v.03s0-.02.01-.03c-.04.22-.11.46-.23.72-.03.07-.07.17-.14.31s-.12.24-.15.31c-.02.04-.05.1-.08.17-.03.07-.06.13-.07.16-.01.02-.03.05-.05.1-.02.05-.03.08-.04.1-.03.08-.08.19-.15.35-.06.16-.11.27-.13.35-.06.17-.15.41-.28.74-.12.33-.21.57-.28.73-.11.27-.18.43-.2.47v.03s-.03.04-.04.07-.02.06-.03.08c-.01.02-.02.04-.03.06-.18.46-.28.72-.29.76.02.04.01.14-.03.3-.02.08-.04.15-.05.19-.03.17-.05.29-.05.37v.12s0,.08,0,.15c0,.07,0,.12,0,.15v.04s0,.03.01.05c0,.02.02.05.03.08s.02.06.03.08c0,0,.01.03.04.08.02.04.04.07.05.08,0,0,0,.02.02.04.01.02.02.03.03.04,0,0,0,.01.01.02s.01.01.02.02c.01.01.04.04.08.06h.01c.15.11.27.16.37.17.29.01.65-.18,1.07-.59.4-.37.88-.97,1.45-1.78.57-.81.98-1.36,1.22-1.64Zm-12.75,2.35c-.02-.08-.03-.13-.02-.13v.09s.01.01.01.01c0,0,.01.01.01.02Zm4.1.89c.62-.74,1.35-1.88,2.19-3.41v-.04s0-.04.01-.05c.09-.51.26-1.08.52-1.69.16-.39.37-.84.63-1.34-.22-.27-.45-.44-.7-.52-.17-.06-.35-.06-.54-.01-.03,0-.07.03-.14.07l-.09.05-.02.02s-.11.1-.24.2h-.01s-.04.07-.08.14c-.08.12-.09.12-.03.02-.03.04-.07.1-.12.17-.05.07-.09.12-.12.17-.01.02-.03.05-.06.09s-.04.07-.06.09l-.19.23s.05-.06.09-.11c0,0-.01.02-.02.04,0,.02-.01.03-.02.04-.05.09-.13.21-.24.36-.11.15-.19.26-.22.32-.53.8-.89,1.38-1.08,1.73-.17.32-.33.63-.46.93,0,0-.01.04-.04.11-.02.07-.05.12-.07.15h0s-.06.13-.12.27l-.11.27s.04-.07.08-.15c0,.01-.04.09-.09.24-.06.16-.11.27-.16.34-.01.04-.03.1-.04.17-.01.07-.02.11-.02.12-.07.17-.1.28-.1.32v.02c-.03.26-.06.4-.06.42,0,.01-.01.03-.01.03,0,.07,0,.12-.01.16h.01s.01.03.01.03v-.02s-.01.05.01.08c0,0,.01,0,.01.01h0s.01.02.01.03c0,0,0-.02-.01-.03.05.1.08.16.1.2l.09.09s.05.05.09.09c.04.04.07.07.09.08,0,0,0,.01.02.01,0,0,.01,0,.02.01.17.11.28.17.33.17.24,0,.55-.24.94-.71Zm-1.69.05s0-.02-.01-.04c0-.02-.01-.03-.01-.04,0,0,.01.02.01.03v.04Zm.63-2.38c.02-.06.04-.09.06-.1v.03l-.08.12s.02-.04.02-.05Z"/>
    <path class="cls-1" d="m117.06,102.34c.1-.14.23-.21.37-.2s.26.07.35.21c.09.14.09.28,0,.42-.14.23-.35.61-.65,1.15-.29.54-.56,1-.79,1.39-.24.39-.49.75-.75,1.08-.29.37-.58.66-.87.89-.29.23-.62.36-.98.38-.29.02-.59-.02-.91-.12-.32-.1-.57-.25-.77-.45-.26-.25-.44-.6-.54-1.06,0-.03-.02-.12-.04-.25l-.03-.2s-.01-.07-.02-.13c0-.06,0-.1,0-.13-.01-.26,0-.48.02-.67.1-.86.39-1.84.86-2.95.06-.15.16-.35.29-.62.13-.27.21-.45.25-.55.03-.07.05-.14.07-.2.03-.06.06-.16.1-.28.08-.22.14-.39.18-.5.01-.05.04-.15.07-.29l.04-.19s0,.04-.01.08h0c.01-.07.03-.13.04-.18h-.01s-.01,0-.01,0v.06s-.01.01-.02.01c0,0,0,0,0,.01h0s.01-.03.01-.04c-.01-.04-.02-.07-.02-.08,0,0-.01-.02-.02-.03,0-.01-.01-.02-.02-.03l-.09-.09s-.05-.03-.1-.06c-.06-.03-.1-.07-.12-.09-.02.01-.07.03-.15.05s-.13.03-.16.04c-.27.1-.6.33-.99.69-.58.53-1.28,1.39-2.12,2.58-.85,1.21-1.57,2.34-2.17,3.39-.19.45-.32.76-.4.92-.12.23-.25.47-.41.73-.11.18-.22.32-.34.41-.05.03-.07.03-.05.02-.12.1-.27.14-.45.11-.18-.03-.29-.13-.32-.31,0-.02-.01-.05-.01-.09-.02-.02-.03-.04-.03-.06-.03-.15-.04-.28-.02-.41.06-.46.1-.8.15-1.02.06-.3.15-.74.3-1.29.14-.56.24-.96.29-1.2.14-.67.37-1.61.7-2.83.13-.5.31-1,.54-1.5.26-.57.48-.94.68-1.11.39-.34.81-.42,1.25-.23s.69.54.73,1.05c0,.1,0,.21-.02.34-.02.13-.04.23-.06.3s-.05.19-.1.36c-.05.17-.08.27-.09.3-.13.42-.31.9-.55,1.44,0,.02-.02.05-.04.09-.02.04-.03.07-.05.09.04-.06.11-.16.19-.29.09-.13.15-.22.2-.29.21-.28.36-.48.44-.6.09-.12.24-.32.46-.6s.4-.49.53-.64c.14-.15.32-.33.54-.55.22-.22.43-.39.61-.5.18-.12.39-.23.62-.34s.46-.18.68-.22c.45-.08.87-.02,1.27.17.4.19.69.48.89.88.37.73.33,1.69-.12,2.87-.35.94-.79,1.84-1.32,2.72-.1.17-.21.38-.33.63l-.09.22s0,.02-.01.03c0,.01-.01.03-.02.05,0,.02-.01.04-.02.05l-.07.17-.08.2s.01-.04.02-.06c0,.03-.02.07-.04.13-.02.06-.04.1-.05.13,0,.02-.01.05-.02.08,0,.04-.01.06-.01.06,0,.02,0,.05,0,.08,0,.04,0,.06,0,.08v.04s.01.02.02.04c.03.08.03.08-.02.01.01.03.05.1.09.2-.02-.04-.02-.04,0-.01.01.02.02.04.03.05l.03.03c.04.06.07.11.11.14.1.07.2.11.3.11.1,0,.21-.02.32-.08.11-.06.2-.12.29-.18.08-.06.18-.15.28-.28.1-.13.18-.22.22-.28s.1-.14.19-.26c.28-.4.66-.99,1.11-1.78.46-.79.72-1.25.8-1.38Zm-3.71-3.36h.01s0-.02.01-.03v-.03s0,.02-.02.05h0Z"/>
  </g>
  <text class="cls-2" transform="translate(12.45 119.44)"><tspan x="0" y="0">BEAUTY LOUNGE BY KM</tspan></text>
</svg>